<?xml version="1.0" encoding="UTF-8" standalone="no"?>
<svg
   width="335"
   height="338.99982"
   viewBox="0 0 335 338.99982"
   fill="none"
   version="1.1"
   id="svg68"
   xmlns="http://www.w3.org/2000/svg"
   xmlns:svg="http://www.w3.org/2000/svg">
  <g
     clip-path="url(#clip0_382_788)"
     id="g68"
     transform="translate(-1.3398629e-6,-1.877852e-4)">
    <path
       d="m 28.5753,93.8517 c 0,0 -40.568,55.5533 -25.02993,88.4303 C 19.0834,215.16 140.524,140.044 194.161,153.728 c 53.636,13.683 117.354,46.224 134.958,34.561 17.603,-11.663 -14.05,-88.7836 -14.05,-88.7836 0,0 -125.366,-74.8331 -286.4937,-5.6537 z"
       fill="#fdbd02"
       id="path25" />
    <path
       d="m 29.7878,91.1766 c 0,0 178.9912,-209.7246 283.4952,6.981 C 315.297,102.335 252.494,69.0761 184.044,85.1532 115.595,101.23 5.45892,166.065 29.7878,91.1766 Z"
       fill="#e00f21"
       id="path26" />
    <path
       d="m 289.255,214.408 c -1.031,-4.103 -2.88,-8.161 -5.013,-12.059 -1.6,-2.963 -3.768,-6.131 -5.937,-8.867 -6.505,-8.297 -15.82,-15.728 -26.804,-21.905 -5.902,-3.328 -12.763,-6.382 -20.584,-9.14 -2.026,-0.707 -4.088,-1.391 -6.257,-2.006 -5.581,-1.641 -11.234,-2.986 -16.922,-4.08 -7.074,-1.345 -14.575,-2.257 -22.538,-2.736 -4.871,-0.296 -9.421,-0.364 -13.687,-0.205 -7.288,0.251 -14.753,0.912 -21.935,2.006 -3.163,0.479 -5.439,0.866 -6.79,1.117 -14.077,2.735 -26.982,7.021 -38.714,12.879 -5.6164,2.803 -11.269,6.314 -15.606,9.482 -5.9013,4.331 -11.1271,9.346 -15.7132,15.067 -1.1021,1.368 -2.133,2.827 -3.1639,4.422 -3.093,4.833 -5.3681,9.528 -6.7901,14.11"
       fill="#e00f21"
       id="path27" />
    <path
       d="m 2.22291,155.071 c 0.25706,0.154 0.61704,0.257 1.13116,0.205 0.41119,0 0.82264,0.052 1.0797,0.155 6.58063,2.057 13.26423,3.96 19.94773,5.658 3.1876,0.977 6.375,1.954 9.6141,2.931 3.0333,0.926 6.118,1.903 9.2542,2.932 7.4547,2.417 14.9094,4.783 22.4156,7.098 2.9306,0.926 5.7583,1.8 8.4316,2.623 3.7529,1.183 7.5576,2.315 11.2591,3.498 15.9889,5.195 32.0299,10.287 48.0699,15.276 6.067,1.903 14.91,4.269 22.159,6.995 0.205,0.103 0.36,0.308 0.308,0.514 -0.154,1.646 -0.257,3.343 0.463,4.938 2.211,4.938 7.815,8.589 13.264,7.406 6.067,-1.286 10.283,-5.76 10.026,-12.087 0,-0.36 0.205,-0.668 0.565,-0.823 3.085,-1.08 5.964,-2.006 8.637,-2.88 14.653,-4.629 29.357,-9.31 44.009,-14.042 3.702,-1.183 7.506,-2.211 10.848,-3.291 16.606,-5.35 33.829,-10.853 51.617,-16.511 1.8,-0.566 4.267,-1.286 7.352,-2.16 2.468,-0.669 4.936,-1.44 7.352,-2.212 l 22.57,-6.275 c 0.103,1.338 0.205,2.521 0.257,3.549 0.36,4.784 0.463,9.464 0.411,13.99 -5.347,0.36 -8.791,0.669 -10.231,0.875 -4.73,0.72 -8.894,1.851 -12.544,3.292 -6.273,2.571 -12.905,5.606 -17.532,10.801 -0.154,0.206 -0.154,0.463 0,0.617 0.668,0.669 1.44,1.08 2.314,1.286 3.547,0.823 7.609,0.771 11.362,0.771 8.894,0 17.069,0.052 24.523,0.155 0.154,0 0.36,0.051 0.514,0.154 0.36,0.257 0.618,0.36 0.875,0.411 l -1.183,10.596 c 0,-0.514 -0.205,-0.72 -0.72,-0.72 h -92.541 c -4.936,0 -9.614,0.514 -14.344,1.337 -10.436,1.8 -20.513,5.812 -29.099,11.881 -5.141,3.601 -10.025,8.436 -14.755,14.505 -2.314,2.932 -3.959,5.143 -4.987,6.635 -1.903,-1.389 -4.422,-2.777 -7.558,-4.115 -6.889,-2.931 -13.573,-4.526 -20.102,-4.68 -4.781,-0.155 -8.997,0 -12.648,0.463 -5.501,0.668 -10.693,1.954 -15.629,3.909 -6.529,2.571 -12.133,6.635 -17.788,11.675 -8.6889,7.818 -18.5601,14.35 -29.9734,15.482 -2.9306,0.257 -5.7583,0.257 -8.6371,0.36 -1.9536,0.052 -4.0615,0.052 -6.3236,0.052 -7.6089,-0.103 -15.0124,-0.103 -22.1586,0 h -4.6271 c -1.5423,-0.052 -3.0847,0 -4.627,0.051 -3.1362,-4.938 -5.9639,-10.081 -8.483,-15.379 -0.0515,-0.154 -0.1029,-0.308 -0.1029,-0.514 0.5141,-0.103 0.8741,-0.103 1.0797,-0.103 12.9559,0.052 25.8089,0.052 38.6618,0 1.5424,0 3.1877,0.103 4.8327,0.257 1.5938,0.155 3.3418,0.257 5.2441,0.257 2.5192,0 4.9356,-0.36 7.3006,-1.183 6.3751,-2.16 11.3621,-6.223 14.858,-12.19 2.8277,-1.954 5.7068,-4.166 8.7401,-6.686 3.7017,-3.086 7.7637,-5.606 12.2357,-7.612 3.753,-1.646 8.38,-3.138 13.881,-4.372 1.491,-0.309 2.982,-0.36 4.525,-0.669 2.879,-0.566 5.963,-0.463 8.843,-0.566 0.771,0 0.822,-0.205 0.154,-0.565 -0.874,-0.463 -1.954,-0.875 -3.137,-1.286 -7.3,-2.315 -14.652,-3.652 -22.055,-4.012 -6.324,-0.257 -13.5729,-0.154 -21.7473,0.36 -0.3086,0 -0.6171,-0.052 -0.9253,-0.206 -0.1542,-0.103 -0.3086,-0.103 -0.4627,0 -0.1029,0.052 -0.1541,0.206 -0.1541,0.412 -4.1645,-6.841 -9.9224,-10.956 -17.223,-12.447 -1.7995,-0.361 -5.0383,-0.566 -9.6654,-0.618 -5.0382,-0.051 -9.9224,-0.103 -14.6009,-0.103 -5.8609,-5.863 -12.493,-10.286 -19.8965,-13.372 -6.1695,-2.521 -12.596,-4.321 -19.17659,-5.247 -0.25706,-0.051 -1.33676,-0.103 -3.13618,-0.257 -1.0797,-0.051 -2.10794,-0.257 -3.13618,-0.514 0.2568,-5.453 0.41094,-11.059 0.92506,-16.665 z"
       fill="#ff2005"
       id="path28" />
    <path
       d="m 1.60627,171.941 c 1.02824,0.257 2.05648,0.463 3.13618,0.514 1.79942,0.103 2.82766,0.206 3.13618,0.258 6.58067,0.977 13.00707,2.726 19.17657,5.246 7.4032,3.034 14.0353,7.509 19.8965,13.373 l -44.47133,0.051 c -0.77143,-6.429 -1.02849,-12.91 -0.8741,-19.442 z"
       fill="#b50004"
       id="path29" />
    <path
       d="m 333.367,172.661 c 0.155,6.224 -0.051,12.344 -0.668,18.414 -0.205,-0.052 -0.514,-0.155 -0.874,-0.412 -0.154,-0.103 -0.308,-0.154 -0.514,-0.154 -7.455,-0.103 -15.629,-0.154 -24.524,-0.154 -3.753,0 -7.814,0.051 -11.362,-0.772 -0.925,-0.206 -1.696,-0.617 -2.313,-1.286 -0.154,-0.154 -0.154,-0.463 0,-0.617 4.627,-5.246 11.259,-8.281 17.531,-10.801 3.651,-1.492 7.815,-2.572 12.545,-3.292 1.439,-0.309 4.833,-0.566 10.179,-0.926 z"
       fill="#b50004"
       id="path30" />
    <path
       d="m 2.47949,191.332 44.47131,-0.051 c 4.6786,0.051 9.5112,0.051 14.601,0.102 4.627,0.052 7.8147,0.258 9.6653,0.618 7.3006,1.44 13.0586,5.606 17.223,12.447 2.005,3.6 2.9818,7.715 2.9818,12.293 0,4.526 -0.9253,8.795 -2.8791,12.858 -3.5474,5.967 -8.483,10.03 -14.858,12.19 -2.365,0.823 -4.8327,1.234 -7.3006,1.183 -1.9024,0 -3.6503,-0.103 -5.2441,-0.257 -1.6453,-0.206 -3.2904,-0.257 -4.8327,-0.257 H 17.6455 c -0.2056,0 -0.5656,0.051 -1.0797,0.103 l -0.3085,-0.103 c -0.1542,-0.052 -0.2571,-0.155 -0.3085,-0.309 -0.3086,-1.234 -0.6171,-2.212 -0.9254,-3.086 -1.4394,-3.96 -2.9305,-7.818 -4.4214,-11.521 -0.103,-0.257 -0.2571,-0.566 -0.4112,-0.823 -0.1542,-0.309 -0.25709,-0.669 -0.20563,-1.08 15.68063,0 31.25833,-0.052 46.73343,-0.103 2.0564,0 3.6503,1.234 5.6553,1.543 4.4215,0.771 7.9688,-0.566 10.6424,-4.012 2.1079,-2.778 2.5706,-6.944 0.8741,-10.133 -2.0565,-3.857 -5.5012,-5.657 -10.231,-5.452 -1.5423,0.052 -3.1361,0.206 -4.6785,0.412 -1.748,0.257 -3.3418,0.205 -5.0897,0.205 -16.1948,-0.102 -32.441,-0.102 -48.73844,0 -0.30852,-0.617 -0.46266,-1.44 -0.56558,-2.417 -0.10293,-1.183 -0.15414,-2.006 -0.25706,-2.469 -0.77093,-3.909 -1.33651,-7.869 -1.85063,-11.881 z"
       fill="#ffffff"
       id="path31" />
    <path
       d="m 331.516,201.619 -3.496,15.842 -84.007,0.154 c -5.861,-0.206 -11.414,0.36 -16.709,1.697 -18.251,4.681 -32.287,18.465 -37.788,36.519 -0.257,0.823 -0.462,2.211 -0.617,4.114 -0.051,0.257 -0.257,0.36 -0.617,0.309 -2.519,-2.263 -4.678,-4.063 -6.426,-5.349 -3.908,-2.932 -8.226,-5.452 -12.905,-7.51 l 6.118,-12.19 c 1.028,-1.491 2.674,-3.703 4.987,-6.635 4.73,-6.069 9.666,-10.904 14.756,-14.504 8.637,-6.069 18.662,-10.081 29.099,-11.881 4.678,-0.823 9.408,-1.338 14.344,-1.338 h 92.541 c 0.463,0.052 0.72,0.309 0.72,0.772 z"
       fill="#012521"
       id="path32" />
    <path
       d="m 88.4921,229.65 c 1.9535,-4.063 2.9306,-8.332 2.8791,-12.858 0,-4.629 -1.0282,-8.744 -2.9818,-12.293 -0.0514,-0.206 0,-0.309 0.1542,-0.411 0.1541,-0.103 0.3085,-0.103 0.4626,0 0.2571,0.154 0.5656,0.257 0.9253,0.205 8.1745,-0.514 15.4235,-0.668 21.7475,-0.36 7.403,0.309 14.755,1.646 22.055,4.012 1.183,0.36 2.211,0.823 3.137,1.286 0.719,0.36 0.668,0.566 -0.155,0.566 -2.879,0.103 -6.015,0 -8.843,0.566 -1.49,0.257 -3.033,0.308 -4.524,0.668 -5.501,1.235 -10.128,2.726 -13.881,4.372 -4.473,2.006 -8.534,4.526 -12.2359,7.612 -3.0335,2.418 -5.9638,4.681 -8.74,6.635 z"
       fill="#b50004"
       id="path33" />
    <path
       d="M 9.88277,225.639 5.10156,208.1 c 16.24624,-0.103 32.49244,-0.103 48.73844,0 1.7479,0 3.3932,0 5.0897,-0.206 1.5424,-0.206 3.1362,-0.36 4.6785,-0.412 4.73,-0.205 8.1745,1.595 10.231,5.452 1.6965,3.189 1.2338,7.356 -0.8741,10.133 -2.6736,3.446 -6.2209,4.783 -10.6424,4.012 -1.9536,-0.36 -3.5474,-1.595 -5.6553,-1.543 -15.526,0.051 -31.104,0.103 -46.78463,0.103 z"
       fill="#b50004"
       id="path34" />
    <path
       d="m 327.969,217.512 c -1.542,5.503 -3.29,10.955 -5.295,16.253 l -39.125,-0.154 c -2.416,-2.109 -5.398,-4.424 -8.997,-6.892 -5.655,-3.858 -11.671,-6.584 -17.994,-8.127 -0.566,-0.154 -1.388,-0.257 -2.468,-0.36 -3.393,-0.257 -6.786,-0.463 -10.128,-0.617 z"
       fill="#3e9d64"
       id="path35" />
    <path
       d="m 244.014,217.666 c 3.393,0.155 6.786,0.36 10.128,0.617 1.08,0.103 1.902,0.206 2.468,0.361 6.323,1.543 12.338,4.269 17.994,8.126 3.599,2.469 6.58,4.732 8.997,6.892 2.159,2.058 4.216,4.115 6.221,6.173 3.084,3.188 6.529,5.863 10.436,7.92 4.679,2.521 9.511,3.549 14.55,3.035 -0.617,1.389 -1.491,2.932 -2.519,4.526 -2.622,4.063 -5.347,8.075 -8.072,12.087 -0.103,-0.205 -0.257,-0.308 -0.463,-0.36 -0.823,-0.308 -2.159,-0.72 -3.959,-1.286 -4.524,-1.337 -8.894,-3.857 -12.699,-7.046 -5.244,-4.424 -10.642,-10.544 -14.446,-13.836 -6.53,-5.658 -13.83,-9.31 -22.107,-10.698 -1.851,-0.309 -3.548,-0.463 -5.142,-0.515 -2.467,-0.051 -4.678,0 -6.735,0.103 -9.048,0.515 -19.022,4.732 -25.5,11.779 -4.884,5.297 -7.917,11.058 -9.1,18.568 -4.936,-2.109 -10.025,-3.498 -15.167,-4.167 0.155,-1.903 0.36,-3.291 0.617,-4.114 5.502,-18.054 19.588,-31.838 37.788,-36.519 5.245,-1.286 10.848,-1.851 16.71,-1.646 z"
       fill="#96e095"
       id="path36" />
    <path
       d="m 175.018,235.308 -6.118,12.19 c -6.324,-2.674 -12.236,-4.166 -17.789,-4.372 -4.678,-0.205 -8.791,-0.205 -12.338,-0.103 -9.769,0.36 -19.331,4.218 -27.609,9.721 -1.439,0.978 -4.01,2.932 -7.712,5.915 -3.033,2.469 -6.169,4.887 -9.4593,7.356 -5.8094,4.423 -12.1333,7.252 -18.9709,8.538 -2.5192,0.463 -5.7583,0.771 -9.6654,0.925 -4.987,0.206 -9.8197,0.155 -14.5495,-0.154 -2.8791,-0.154 -6.375,-0.72 -10.6423,-1.594 -1.5939,-0.309 -3.1877,-0.36 -4.8327,-0.463 L 24.998,258.505 c 1.5424,-0.051 3.0848,-0.103 4.6271,-0.051 2.108,0.051 3.6503,0.051 4.6271,0 7.1462,-0.103 14.4983,-0.103 22.1586,0 2.2106,0.051 4.3185,0 6.3236,-0.052 2.8791,-0.103 5.7582,-0.103 8.6371,-0.36 11.4135,-1.08 21.2845,-7.664 29.9735,-15.482 5.603,-5.04 11.207,-9.104 17.788,-11.675 4.884,-1.955 10.128,-3.241 15.629,-3.909 3.651,-0.463 7.866,-0.617 12.648,-0.463 6.529,0.206 13.213,1.749 20.102,4.68 3.085,1.338 5.604,2.675 7.506,4.115 z"
       fill="#b50004"
       id="path37" />
    <path
       d="m 322.724,233.765 c -2.056,5.812 -4.884,11.367 -7.866,17.025 -5.038,0.463 -9.871,-0.514 -14.549,-3.035 -3.908,-2.108 -7.403,-4.732 -10.437,-7.92 -2.005,-2.109 -4.061,-4.167 -6.221,-6.173 z"
       fill="#012521"
       id="path38" />
    <path
       d="m 304.217,267.455 c -2.931,4.115 -4.833,6.738 -5.809,7.818 -1.748,2.057 -3.445,4.063 -5.142,6.12 -1.594,-0.72 -3.187,-1.388 -4.73,-1.903 -0.925,-0.308 -2.776,-1.44 -5.552,-3.291 -2.417,-1.646 -5.347,-3.909 -8.74,-6.841 -0.566,-0.463 -1.542,-1.595 -2.417,-1.903 -0.308,-0.103 -0.668,0.103 -1.028,0.617 -1.131,-2.932 -2.622,-5.401 -4.524,-7.407 -4.884,-5.194 -11.413,-8.178 -18.611,-8.28 -0.874,0 -1.748,-0.103 -2.571,-0.206 -5.449,-1.44 -10.385,-0.772 -14.961,2.006 -6.066,3.754 -9.614,9.309 -10.642,16.716 -0.823,5.966 0.463,11.573 3.907,16.819 -2.519,-0.926 -4.781,-2.006 -6.735,-3.292 -4.37,-2.777 -8.483,-5.915 -12.236,-9.31 -0.514,-4.011 -0.668,-7.663 -0.36,-10.955 1.183,-7.509 4.216,-13.27 9.1,-18.568 6.53,-7.046 16.452,-11.264 25.501,-11.778 2.005,-0.103 4.267,-0.155 6.735,-0.103 1.594,0 3.29,0.206 5.141,0.514 8.277,1.389 15.578,4.989 22.107,10.698 3.805,3.292 9.151,9.413 14.447,13.836 3.804,3.189 8.174,5.709 12.699,7.047 1.851,0.566 3.136,0.977 3.959,1.286 0.205,0 0.359,0.154 0.462,0.36 z"
       fill="#012521"
       id="path39" />
    <path
       d="m 168.9,247.447 c 4.679,2.057 8.997,4.577 12.905,7.509 1.748,1.286 3.907,3.086 6.426,5.349 3.753,3.344 7.352,6.327 11.105,10.082 1.646,1.594 3.291,3.188 5.039,4.732 3.752,3.394 7.865,6.532 12.235,9.309 1.954,1.235 4.216,2.366 6.735,3.292 6.941,2.88 14.242,3.806 21.902,2.777 3.239,-0.565 5.809,-1.851 7.712,-3.857 4.113,-4.321 4.473,-10.441 0.411,-14.968 -2.056,-2.314 -6.375,-4.114 -9.563,-2.674 -0.462,0.205 -0.976,0.411 -1.542,0.566 -2.416,0.102 -4.524,-0.72 -6.324,-2.469 -2.724,-2.572 -3.393,-6.584 -1.439,-9.773 0.977,-1.594 2.159,-2.726 3.547,-3.446 1.851,-0.977 4.216,-1.543 6.992,-1.749 0.823,0.103 1.697,0.206 2.571,0.206 7.198,0.103 13.727,3.086 18.611,8.281 1.903,2.006 3.393,4.475 4.524,7.407 0.823,1.697 1.389,3.6 1.646,5.76 0.617,4.681 0.205,9.155 -1.234,13.425 -1.594,5.709 -4.884,10.286 -9.923,13.784 l -0.822,0.617 c -4.781,2.932 -9.357,4.681 -13.83,5.247 -2.776,0.36 -7.095,0.462 -13.007,0.257 -1.028,-0.052 -1.954,-0.155 -2.776,-0.257 -2.417,-0.412 -4.782,-0.772 -7.095,-1.441 -5.552,-1.594 -10.848,-4.012 -15.938,-7.252 -3.033,-1.954 -6.169,-4.372 -9.459,-7.304 -5.039,-4.526 -10.334,-9.309 -15.424,-14.144 -2.262,-2.16 -4.524,-4.166 -6.838,-6.069 -4.884,-4.012 -10.282,-7.047 -16.297,-9.207 -6.324,-2.212 -13.162,-2.315 -19.897,-1.903 -7.249,0.463 -14.087,2.674 -20.513,6.686 -3.085,1.903 -5.759,3.858 -8.123,5.812 -3.548,2.984 -6.992,5.864 -10.334,8.641 -3.599,2.984 -7.9175,5.504 -12.956,7.664 -5.7068,2.418 -11.9277,3.6 -18.6625,3.6 -5.5524,0 -11.2077,0.103 -16.9659,0.309 -1.1824,-1.131 -2.4165,-2.366 -3.7018,-3.703 -3.0847,-3.24 -6.2209,-6.429 -8.8941,-9.876 -1.4395,-1.903 -3.1362,-3.291 -4.6786,-5.04 -0.0514,-0.052 -0.0514,-0.103 -0.0514,-0.154 0,-0.309 0.1541,-0.412 0.4626,-0.258 1.6453,0.103 3.2389,0.155 4.8327,0.463 4.2159,0.875 7.7632,1.44 10.6424,1.595 4.73,0.308 9.5626,0.36 14.5494,0.154 3.9074,-0.154 7.1462,-0.463 9.6654,-0.926 6.8377,-1.286 13.11,-4.114 18.9709,-8.538 3.2389,-2.469 6.4269,-4.938 9.4599,-7.355 3.702,-2.983 6.272,-4.938 7.712,-5.915 8.277,-5.503 17.84,-9.361 27.608,-9.721 3.599,-0.154 7.712,-0.103 12.339,0.103 5.449,0.206 11.413,1.697 17.685,4.372 z"
       fill="#ffffff"
       id="path40" />
    <path
       d="m 245.093,252.179 c -2.776,0.205 -5.09,0.823 -6.992,1.748 -1.388,0.72 -2.571,1.852 -3.547,3.447 -1.954,3.188 -1.286,7.2 1.439,9.772 1.851,1.749 3.959,2.572 6.324,2.469 -3.034,0.411 -5.142,2.263 -6.17,5.555 -1.902,5.863 0.566,11.624 6.067,14.093 0.976,0.463 2.005,0.874 3.084,1.234 -7.66,1.029 -14.961,0.103 -21.901,-2.777 -3.445,-5.247 -4.73,-10.853 -3.908,-16.819 1.029,-7.407 4.576,-13.013 10.643,-16.716 4.576,-2.829 9.512,-3.498 14.961,-2.006 z"
       fill="#3e9d64"
       id="path41" />
    <path
       d="m 260.466,301.659 c 0.36,0.205 0.514,0.36 0.462,0.462 -0.103,0.309 0.103,0.618 0.463,0.72 h 0.051 c 1.234,0.206 2.365,0.412 3.445,0.515 0.309,0.051 0.36,-0.052 0.052,-0.206 l -3.599,-2.109 c 5.038,-3.497 8.329,-8.126 9.922,-13.784 4.37,1.131 7.866,3.292 10.488,6.532 -5.912,5.503 -10.025,9.104 -12.339,10.801 -2.262,1.698 -4.575,3.343 -6.889,4.938 -7.506,5.298 -15.475,9.721 -23.958,13.27 -3.393,0.052 -6.786,0.052 -10.179,0.103 -2.725,0.051 -6.118,-0.514 -10.18,-1.646 -6.478,-1.8 -12.544,-4.629 -18.302,-8.538 -2.674,-1.8 -5.347,-3.858 -8.021,-6.224 -4.37,-3.857 -8.226,-7.355 -11.619,-10.544 -3.188,-3.034 -6.632,-5.915 -10.334,-8.641 -0.822,-0.463 -1.696,-1.131 -2.519,-1.954 -1.234,-1.235 -2.005,-1.955 -2.313,-2.161 -5.707,-4.526 -12.339,-6.737 -19.948,-6.635 -1.131,0 -2.262,0 -3.496,0.052 -1.234,0.051 -2.417,0.154 -3.445,0.309 -8.329,1.491 -15.835,5.04 -22.467,10.749 -1.131,0.978 -2.313,2.058 -3.599,3.241 -0.154,0.103 -0.257,0.257 -0.462,0.36 -0.155,0.103 -0.309,0.205 -0.412,0.36 -0.822,0.926 -1.748,1.749 -2.673,2.52 -0.463,0.154 -0.823,0.463 -1.08,0.926 -2.519,2.212 -4.987,4.063 -7.3,5.606 -6.1699,3.961 -13.059,6.224 -20.7708,6.738 -2.3135,0.154 -4.0615,0.206 -6.2209,-0.154 -0.6171,-0.103 -1.4394,-0.052 -2.4165,0.103 -3.5473,-2.058 -6.4779,-4.115 -8.7915,-6.172 -2.622,-2.366 -5.2441,-4.681 -7.9688,-6.944 -0.5141,-0.463 -1.1312,-1.08 -1.7994,-1.852 5.7582,-0.205 11.4135,-0.308 16.9659,-0.308 6.735,0 12.9559,-1.183 18.6624,-3.601 5.0383,-2.109 9.3571,-4.68 12.9556,-7.663 3.342,-2.778 6.787,-5.658 10.334,-8.641 2.365,-2.006 5.09,-3.961 8.123,-5.813 6.427,-3.96 13.316,-6.223 20.514,-6.686 6.735,-0.412 13.572,-0.309 19.896,1.903 6.015,2.109 11.465,5.195 16.298,9.207 2.313,1.903 4.575,3.909 6.837,6.069 5.09,4.835 10.386,9.618 15.424,14.144 3.29,2.932 6.426,5.35 9.46,7.304 5.089,3.24 10.385,5.658 15.937,7.252 2.365,0.669 4.679,1.029 7.095,1.441 0.823,0.154 1.748,0.257 2.776,0.257 5.913,0.205 10.231,0.154 13.008,-0.257 4.524,-0.669 9.151,-2.418 13.933,-5.349 z"
       fill="#012521"
       id="path42" />
    <path
       d="m 188.899,259.997 c 5.193,0.668 10.231,2.057 15.167,4.166 -0.309,3.343 -0.155,6.995 0.36,10.956 -1.748,-1.544 -3.445,-3.138 -5.039,-4.732 -3.753,-3.704 -7.352,-6.738 -11.105,-10.082 0.308,0.103 0.566,-0.051 0.617,-0.308 z"
       fill="#3e9d64"
       id="path43" />
    <path
       d="m 293.317,281.393 -11.568,12.345 c -2.622,-3.241 -6.118,-5.401 -10.488,-6.532 1.439,-4.218 1.851,-8.693 1.234,-13.425 -0.257,-2.16 -0.823,-4.063 -1.645,-5.761 0.36,-0.514 0.719,-0.72 1.028,-0.617 0.925,0.36 1.851,1.44 2.416,1.903 3.394,2.932 6.324,5.195 8.74,6.841 2.777,1.852 4.627,2.983 5.553,3.292 1.542,0.617 3.136,1.234 4.73,1.954 z"
       fill="#3e9d64"
       id="path44" />
    <path
       d="m 245.298,290.497 c -1.079,-0.36 -2.108,-0.823 -3.084,-1.234 -5.45,-2.469 -7.969,-8.229 -6.067,-14.093 1.08,-3.343 3.136,-5.195 6.17,-5.555 0.565,-0.154 1.079,-0.36 1.542,-0.566 3.188,-1.44 7.455,0.36 9.563,2.675 4.061,4.475 3.65,10.647 -0.412,14.967 -1.902,1.955 -4.473,3.241 -7.712,3.806 z"
       fill="#012521"
       id="path45" />
    <path
       d="m 145.199,276.507 c -2.056,0.206 -4.061,1.338 -5.964,3.343 -3.29,3.447 -2.93,7.767 0.206,11.007 1.182,1.235 2.828,1.595 4.318,2.572 -8.585,0.566 -15.834,3.343 -22.467,9.155 -3.65,3.189 -6.786,5.915 -9.408,8.076 -3.702,3.086 -7.917,5.554 -12.6474,7.406 -0.9767,0.412 -3.4447,1.029 -7.3006,1.903 -5.3982,-2.932 -10.6936,-6.018 -16.0406,-9.207 -1.748,-1.08 -3.4447,-2.263 -5.0897,-3.548 1.0282,-0.155 1.7994,-0.206 2.4164,-0.103 2.1594,0.36 3.9074,0.308 6.2209,0.154 7.6604,-0.514 14.601,-2.726 20.77,-6.738 2.314,-1.492 4.73,-3.343 7.301,-5.606 0.411,0 0.771,-0.309 1.08,-0.926 0.976,-0.772 1.851,-1.595 2.673,-2.52 0.103,-0.155 0.257,-0.258 0.411,-0.36 0.155,-0.103 0.309,-0.206 0.463,-0.36 1.285,-1.183 2.468,-2.263 3.599,-3.241 6.632,-5.709 14.138,-9.258 22.467,-10.75 1.028,-0.205 2.211,-0.308 3.445,-0.308 1.234,0.103 2.416,0.051 3.547,0.051 z"
       fill="#96e095"
       id="path46" />
    <path
       d="m 145.199,276.507 c 7.609,-0.154 14.241,2.057 19.948,6.635 0.308,0.257 1.08,0.977 2.313,2.16 0.823,0.823 1.697,1.492 2.519,1.955 0.463,1.028 0.926,1.954 1.389,2.829 0.719,1.286 1.182,2.211 1.439,2.777 2.108,5.349 2.725,10.904 1.748,16.716 -0.411,2.418 -1.234,4.784 -2.468,7.098 -3.855,7.098 -10.23,12.499 -18.251,13.99 -3.393,0.618 -6.786,0.618 -10.128,0.103 -2.879,-1.183 -5.501,-2.829 -6.427,-5.966 -1.285,-4.218 2.263,-8.127 5.913,-9.567 0.205,-0.052 0.36,-0.206 0.462,-0.36 0.103,-0.154 0.206,-0.206 0.309,-0.206 0.668,-0.103 1.645,-0.103 2.982,-0.103 5.244,0.155 8.843,-1.851 10.745,-6.069 1.285,-2.88 1.388,-5.812 0.051,-8.589 -1.542,-3.189 -3.907,-5.195 -7.146,-6.07 -1.953,-0.514 -4.524,-0.257 -6.735,-0.411 -1.491,-1.029 -3.136,-1.389 -4.318,-2.572 -3.137,-3.24 -3.496,-7.612 -0.206,-11.007 1.8,-2.006 3.805,-3.086 5.861,-3.343 z"
       fill="#ffffff"
       id="path47" />
    <path
       d="m 238.563,322.798 c -1.234,0.669 -2.467,1.286 -3.702,1.8 -2.467,1.08 -4.987,2.16 -7.454,3.189 -5.758,2.366 -11.568,4.372 -17.532,5.967 -1.799,-0.258 -2.93,-0.463 -3.444,-0.566 -1.337,-0.309 -2.931,-0.772 -4.679,-1.44 -8.534,-3.086 -15.938,-8.539 -22.004,-15.585 -2.211,-2.572 -3.959,-4.783 -5.193,-6.635 0.977,-5.812 0.36,-11.367 -1.748,-16.716 -0.205,-0.566 -0.72,-1.492 -1.439,-2.778 -0.463,-0.874 -0.926,-1.8 -1.389,-2.828 3.702,2.726 7.095,5.606 10.334,8.641 3.342,3.188 7.249,6.737 11.62,10.544 2.673,2.366 5.346,4.423 8.02,6.223 5.758,3.858 11.825,6.738 18.303,8.538 4.061,1.132 7.454,1.698 10.179,1.646 3.29,0.052 6.684,0.052 10.128,0 z"
       fill="#3e9d64"
       id="path48" />
    <path
       d="m 143.76,293.48 c 2.21,0.103 4.781,-0.154 6.735,0.412 3.239,0.874 5.604,2.932 7.146,6.069 1.337,2.778 1.234,5.709 -0.052,8.59 -1.902,4.217 -5.501,6.223 -10.745,6.069 -3.341,-0.052 -7.043,-0.309 -10.128,0.257 -2.879,0.514 -5.604,1.492 -8.072,2.88 -5.552,3.087 -10.385,6.687 -14.292,11.573 -0.052,0.103 -0.154,0.155 -0.309,0.155 -0.051,0 -0.103,0.051 -0.154,0.051 -1.594,-0.514 -3.187,-1.08 -4.781,-1.749 -5.758,-2.417 -11.5162,-4.989 -17.1715,-7.766 3.8559,-0.875 6.2724,-1.492 7.3006,-1.903 4.7299,-1.852 8.9459,-4.321 12.6479,-7.407 2.622,-2.16 5.758,-4.835 9.408,-8.075 6.58,-5.813 13.881,-8.59 22.467,-9.156 z"
       fill="#012521"
       id="path49" />
    <path
       d="m 108.594,294.098 c -0.308,0.617 -0.668,0.874 -1.079,0.926 0.257,-0.515 0.617,-0.823 1.079,-0.926 z"
       fill="#3e9d64"
       id="path50" />
    <path
       d="m 261.287,301.041 3.599,2.109 c 0.309,0.155 0.257,0.206 -0.051,0.206 -1.08,-0.103 -2.211,-0.257 -3.445,-0.514 -0.309,-0.052 -0.566,-0.36 -0.514,-0.669 v -0.052 c 0.051,-0.102 -0.154,-0.308 -0.463,-0.462 z"
       fill="#3e9d64"
       id="path51" />
    <path
       d="m 174.504,309.579 c 1.285,1.852 2.981,4.064 5.192,6.635 6.067,7.047 13.47,12.499 22.004,15.585 1.8,0.617 3.342,1.132 4.679,1.44 0.514,0.103 1.645,0.309 3.445,0.566 -7.455,1.954 -15.064,3.497 -22.673,4.218 -0.771,0.102 -1.594,0.154 -2.365,0.308 -1.645,0.257 -3.239,0.155 -4.987,0.412 -1.234,0.154 -2.622,0.257 -4.164,0.257 -4.628,0 -9.152,0 -13.625,-0.052 -0.719,0 -1.491,-0.051 -2.313,-0.154 -0.771,-0.103 -1.543,-0.154 -2.365,-0.154 -1.543,-0.103 -3.085,-0.257 -4.576,-0.515 l -0.205,-0.205 c -0.103,-0.103 -0.155,-0.257 -0.155,-0.412 0,-0.103 0.052,-0.154 0.155,-0.205 0.103,-0.052 0.154,-0.155 0.103,-0.258 -0.052,-0.771 0.154,-1.44 0.514,-2.057 0.308,-0.463 0.514,-1.029 0.514,-1.697 0.051,-0.875 0.051,-1.749 -0.052,-2.675 8.021,-1.44 14.447,-6.841 18.252,-13.99 1.388,-2.263 2.21,-4.629 2.622,-7.047 z"
       fill="#012521"
       id="path52" />
    <path
       d="m 146.845,314.569 c -1.337,-0.052 -2.366,0 -2.982,0.102 -0.103,0 -0.206,0.103 -0.309,0.206 -0.103,0.154 -0.257,0.309 -0.462,0.36 -3.651,1.44 -7.198,5.298 -5.913,9.567 0.977,3.138 3.548,4.783 6.427,5.966 -1.234,0.206 -2.519,0.412 -3.805,0.515 -1.645,0.154 -2.93,0.36 -3.753,0.617 -2.21,0.617 -4.318,1.491 -6.478,2.572 -2.056,-0.412 -4.37,-1.029 -6.992,-1.852 -2.673,-0.874 -5.398,-1.697 -8.123,-2.52 -0.205,-0.052 -0.36,-0.257 -0.565,-0.566 0.051,0 0.103,-0.052 0.154,-0.052 0.103,0 0.205,-0.102 0.308,-0.154 3.908,-4.886 8.74,-8.538 14.293,-11.573 2.467,-1.388 5.192,-2.366 8.071,-2.88 3.085,-0.617 6.787,-0.308 10.129,-0.308 z"
       fill="#96e095"
       id="path53" />
    <path
       d="m 153.733,330.667 c 0.103,0.875 0.103,1.801 0.052,2.675 -0.052,0.617 -0.206,1.183 -0.514,1.697 -0.412,0.618 -0.566,1.286 -0.515,2.058 0,0.103 -0.051,0.205 -0.102,0.257 -0.103,0.051 -0.155,0.154 -0.155,0.206 -0.051,0.154 0,0.308 0.155,0.411 l 0.205,0.206 c -5.655,-0.566 -12.287,-1.543 -19.999,-2.881 -1.337,-0.257 -2.417,-0.514 -3.239,-0.823 2.108,-1.131 4.267,-2.005 6.478,-2.571 0.874,-0.257 2.108,-0.463 3.753,-0.617 1.285,-0.103 2.571,-0.309 3.804,-0.515 3.342,0.515 6.684,0.515 10.077,-0.103 z"
       fill="#3e9d64"
       id="path54" />
    <path
       fill-rule="evenodd"
       clip-rule="evenodd"
       d="M 141.146,239.881 V 2.99316 h 9.216 V 239.881 Z"
       fill="#000000"
       id="path55" />
    <path
       fill-rule="evenodd"
       clip-rule="evenodd"
       d="m 138.161,2.42994 c 0,-1.4e-4 0,4.5e-4 4.096,0.38005 4.097,0.3796 4.097,0.38162 4.097,0.38435 l -0.001,0.00906 -0.003,0.03094 c -0.003,0.02632 -0.006,0.06397 -0.011,0.11278 -0.01,0.09762 -0.024,0.23987 -0.043,0.42531 -0.038,0.37089 -0.096,0.91461 -0.177,1.61964 -0.161,1.40998 -0.413,3.46567 -0.776,6.07493 -0.727,5.2174 -1.902,12.6538 -3.7,21.5707 -3.591,17.816 -9.685,41.629 -19.698,65.4904 C 102.02,146.012 65.8574,195.176 1.69727,195.176 v -8.232 c 58.97143,0 93.08923,-44.961 112.66073,-91.6023 9.736,-23.2011 15.695,-46.4506 19.219,-63.9314 1.761,-8.7315 2.909,-16.0021 3.616,-21.0796 0.354,-2.5382 0.597,-4.52695 0.751,-5.87453 0.077,-0.67375 0.132,-1.1871 0.167,-1.52858 0.018,-0.17074 0.031,-0.2985 0.039,-0.38185 l 0.009,-0.09153 z"
       fill="#000000"
       id="path56" />
    <path
       fill-rule="evenodd"
       clip-rule="evenodd"
       d="M 1.38867,186.944 H 334.847 v 8.232 H 1.38867 Z"
       fill="#000000"
       id="path57" />
    <path
       fill-rule="evenodd"
       clip-rule="evenodd"
       d="M 121.354,188.282 V 76.361 h 9.316 v 111.921 z"
       fill="#000000"
       id="path58" />
    <path
       fill-rule="evenodd"
       clip-rule="evenodd"
       d="m 92.7178,188.282 v -53.337 h 9.3152 v 53.337 z"
       fill="#000000"
       id="path59" />
    <path
       fill-rule="evenodd"
       clip-rule="evenodd"
       d="m 64.8008,191.162 v -24.225 h 9.315 v 24.225 z"
       fill="#000000"
       id="path60" />
    <path
       fill-rule="evenodd"
       clip-rule="evenodd"
       d="M 186.338,238.978 V 2.08984 h 9.215 V 238.978 Z"
       fill="#000000"
       id="path61" />
    <path
       fill-rule="evenodd"
       clip-rule="evenodd"
       d="m 190.344,2.47413 c -0.001,-0.00274 -0.001,-0.00476 4.096,-0.38436 3.337,-0.3092 3.956,-0.36693 4.07,-0.37764 0.026,-0.00243 0.026,-0.00243 0.026,-0.00241 l 0.003,0.02428 0.009,0.09152 c 0.008,0.08335 0.02,0.21111 0.038,0.38185 0.035,0.34149 0.09,0.85484 0.167,1.52859 0.154,1.34758 0.397,3.33632 0.751,5.87455 0.707,5.07739 1.856,12.34809 3.616,21.07959 3.524,17.4808 9.483,40.7303 19.219,63.9313 19.572,46.6416 53.69,91.6026 112.661,91.6026 v 8.231 c -64.16,0 -100.322,-49.163 -120.248,-96.6472 C 204.739,73.9465 198.646,50.1335 195.054,32.3175 193.257,23.4006 192.081,15.9642 191.355,10.7467 190.991,8.13752 190.74,6.08184 190.578,4.67186 190.498,3.96682 190.44,3.42311 190.401,3.05222 190.382,2.86677 190.368,2.72452 190.358,2.6269 190.354,2.5781 190.35,2.54044 190.348,2.51413 Z"
       fill="#000000"
       id="path62" />
    <path
       fill-rule="evenodd"
       clip-rule="evenodd"
       d="M 206.029,187.562 V 75.6923 h 9.315 V 187.562 Z"
       fill="#000000"
       id="path63" />
    <path
       fill-rule="evenodd"
       clip-rule="evenodd"
       d="m 234.665,187.562 v -53.337 h 9.315 v 53.337 z"
       fill="#000000"
       id="path64" />
    <path
       fill-rule="evenodd"
       clip-rule="evenodd"
       d="m 262.582,190.442 v -24.225 h 9.315 v 24.225 z"
       fill="#000000"
       id="path65" />
    <path
       fill-rule="evenodd"
       clip-rule="evenodd"
       d="m 141.435,109.917 26.757,-26.7689 26.758,26.7689 -26.758,26.77 z m 11.636,0 15.121,15.128 15.122,-15.128 -15.122,-15.1275 z"
       fill="#000000"
       id="path66" />
    <path
       fill-rule="evenodd"
       clip-rule="evenodd"
       d="M 141.444,33.2261 168.202,6.45668 194.96,33.226 168.202,59.9954 Z m 11.637,0 15.121,15.1279 15.121,-15.128 -15.121,-15.1279 z"
       fill="#000000"
       id="path67" />
    <path
       fill-rule="evenodd"
       clip-rule="evenodd"
       d="m 168.221,162.196 23.833,23.844 -5.818,5.821 -18.015,-18.023 -18.016,18.023 -5.818,-5.821 z"
       fill="#000000"
       id="path68" />
  </g>
  <defs
     id="defs68">
    <clipPath
       id="clip0_382_788">
      <rect
         width="335"
         height="339"
         fill="#ffffff"
         id="rect68"
         x="0"
         y="0" />
    </clipPath>
  </defs>
</svg>
