<svg width="662" height="339" viewBox="0 0 662 339" fill="none" xmlns="http://www.w3.org/2000/svg">
<path d="M625.711 155.889V97.3076H635.753V146.349H660.692V155.889H625.711Z" fill="#0E8044"/>
<path fill-rule="evenodd" clip-rule="evenodd" d="M624.403 157.197V96H637.061V145.041H662V157.197H624.403ZM635.753 146.349V97.3076H625.711V155.889H660.692V146.349H635.753Z" fill="#0E8044"/>
<path d="M563.303 155.889L586.066 97.3076H596.276L619.039 155.889H608.912L603.556 141.997H578.785L573.429 155.889H563.303ZM591.171 109.944L582.383 132.791H599.958L591.171 109.944Z" fill="#0E8044"/>
<path fill-rule="evenodd" clip-rule="evenodd" d="M561.391 157.197L585.17 96H597.17L620.949 157.197H608.015L602.659 143.304H579.682L574.326 157.197H561.391ZM578.784 141.997H603.556L608.912 155.889H619.038L596.275 97.3076H586.065L563.302 155.889H573.428L578.784 141.997ZM582.383 132.791H599.957L591.17 109.944L582.383 132.791ZM591.17 113.587L584.287 131.484H598.053L591.17 113.587Z" fill="#0E8044"/>
<path d="M544.259 125.259C547.607 125.259 550.117 124.506 551.958 122.832C553.799 121.159 554.72 118.899 554.72 116.054C554.72 113.208 553.799 111.032 551.958 109.359C550.117 107.685 547.607 106.848 544.259 106.848H535.639V125.259H544.259ZM525.597 155.889V97.3076H545.514C551.205 97.3076 555.892 99.1487 559.49 102.664C563.089 106.178 564.93 110.698 564.93 116.054C564.93 121.493 563.089 126.012 559.49 129.527C555.892 133.042 551.205 134.8 545.514 134.8H535.639V155.889H525.597Z" fill="#0E8044"/>
<path fill-rule="evenodd" clip-rule="evenodd" d="M524.289 157.197V96H545.514C551.51 96 556.536 97.9506 560.404 101.728C564.271 105.505 566.237 110.369 566.237 116.054C566.237 121.818 564.273 126.684 560.404 130.463C556.526 134.25 551.495 136.107 545.514 136.107H536.947V157.197H524.289ZM535.639 134.8H545.514C551.205 134.8 555.892 133.042 559.49 129.527C563.089 126.012 564.93 121.493 564.93 116.054C564.93 110.698 563.089 106.179 559.49 102.664C555.892 99.1487 551.205 97.3076 545.514 97.3076H525.597V155.889H535.639V134.8ZM544.259 123.952C547.417 123.952 549.563 123.243 551.079 121.865C552.607 120.476 553.412 118.589 553.412 116.054C553.412 113.532 552.616 111.723 551.079 110.326C549.545 108.932 547.385 108.156 544.259 108.156H536.947V123.952H544.259ZM544.259 125.259C547.607 125.259 550.117 124.506 551.958 122.832C553.799 121.159 554.72 118.899 554.72 116.054C554.72 113.208 553.799 111.032 551.958 109.359C550.117 107.685 547.607 106.848 544.259 106.848H535.639V125.259H544.259Z" fill="#0E8044"/>
<path d="M503.128 133.377V97.3076H513.171V134.632C513.171 141.16 511.079 146.516 506.978 150.7C502.794 154.885 497.354 156.893 490.575 156.893C483.713 156.893 478.273 154.885 474.172 150.7C469.988 146.516 467.979 141.16 467.979 134.632V97.3076H478.022V133.377C478.022 137.729 479.026 141.076 481.202 143.587C483.378 146.097 486.474 147.353 490.575 147.353C494.592 147.353 497.689 146.097 499.864 143.587C502.04 141.076 503.128 137.729 503.128 133.377Z" fill="#0E8044"/>
<path fill-rule="evenodd" clip-rule="evenodd" d="M501.821 96H514.478V134.632C514.478 141.466 512.276 147.162 507.912 151.616L507.903 151.625C503.43 156.097 497.635 158.201 490.575 158.201C483.44 158.201 477.638 156.102 473.243 151.62C468.782 147.156 466.672 141.452 466.672 134.632V96H479.33V133.377C479.33 137.53 480.285 140.532 482.19 142.73C484.063 144.892 486.762 146.045 490.575 146.045C494.3 146.045 497 144.895 498.876 142.73C500.793 140.519 501.821 137.506 501.821 133.377V96ZM474.172 150.7C478.273 154.885 483.713 156.893 490.575 156.893C497.354 156.893 502.794 154.885 506.978 150.7C511.079 146.516 513.171 141.16 513.171 134.632V97.3076H503.128V133.377C503.128 137.729 502.04 141.076 499.864 143.587C497.689 146.097 494.592 147.353 490.575 147.353C486.474 147.353 483.378 146.097 481.202 143.587C479.026 141.076 478.022 137.729 478.022 133.377V97.3076H467.979V134.632C467.979 141.16 469.988 146.516 474.172 150.7Z" fill="#0E8044"/>
<path d="M419.189 155.889V97.3076H438.437C444.212 97.3076 448.898 99.0651 452.497 102.413C456.011 105.844 457.853 110.196 457.853 115.552C457.853 120.071 456.681 123.837 454.421 126.933C452.078 130.029 448.898 132.122 444.797 133.126L459.443 155.889H447.726L433.834 133.795H429.231V155.889H419.189ZM437.182 124.255C440.446 124.255 443.04 123.586 444.881 122.079C446.722 120.573 447.643 118.397 447.643 115.552C447.643 112.706 446.722 110.614 444.881 109.108C443.04 107.601 440.446 106.848 437.182 106.848H429.231V124.255H437.182Z" fill="#0E8044"/>
<path fill-rule="evenodd" clip-rule="evenodd" d="M417.881 157.197V96H438.437C444.496 96 449.515 97.8532 453.387 101.455L453.399 101.466L453.41 101.477C457.188 105.165 459.16 109.859 459.16 115.552C459.16 120.31 457.922 124.355 455.478 127.704L455.471 127.713L455.464 127.722C453.276 130.613 450.409 132.689 446.845 133.892L461.839 157.197H447.004L433.112 135.103H430.539V157.197H417.881ZM429.231 133.795H433.834L447.726 155.889H459.443L444.797 133.126C445.247 133.016 445.686 132.892 446.114 132.756C449.586 131.65 452.335 129.69 454.421 126.933C456.681 123.837 457.853 120.071 457.853 115.552C457.853 110.196 456.011 105.844 452.497 102.413C448.898 99.0651 444.212 97.3076 438.437 97.3076H419.189V155.889H429.231V133.795ZM437.182 122.947C440.293 122.947 442.54 122.305 444.053 121.067C445.53 119.858 446.335 118.09 446.335 115.552C446.335 113.028 445.54 111.336 444.053 110.12C442.522 108.867 440.26 108.156 437.182 108.156H430.539V122.947H437.182ZM437.182 124.255C440.446 124.255 443.04 123.586 444.881 122.079C446.722 120.573 447.643 118.397 447.643 115.552C447.643 112.706 446.722 110.614 444.881 109.108C443.04 107.601 440.446 106.848 437.182 106.848H429.231V124.255H437.182Z" fill="#0E8044"/>
<path d="M381.221 97.3076C389.673 97.3076 396.62 100.069 402.059 105.593C407.415 111.116 410.177 118.146 410.177 126.598C410.177 135.134 407.415 142.08 402.059 147.604C396.62 153.127 389.673 155.889 381.221 155.889H362.308V97.3076H381.221ZM381.388 146.349C386.912 146.349 391.347 144.424 394.778 140.574C398.21 136.724 399.967 132.122 399.967 126.598C399.967 121.075 398.21 116.472 394.778 112.622C391.347 108.773 386.912 106.848 381.388 106.848H372.35V146.349H381.388Z" fill="#0E8044"/>
<path fill-rule="evenodd" clip-rule="evenodd" d="M402.998 104.682C408.61 110.469 411.485 117.834 411.485 126.598C411.485 135.448 408.608 142.728 402.998 148.514L402.991 148.521C397.282 154.318 389.989 157.197 381.221 157.197H361V96H381.221C389.989 96 397.282 98.8784 402.991 104.675L402.998 104.682ZM381.388 145.041C386.565 145.041 390.636 143.256 393.802 139.704C397.012 136.103 398.659 131.812 398.659 126.598C398.659 121.384 397.012 117.094 393.802 113.492C390.636 109.94 386.565 108.156 381.388 108.156H373.658V145.041H381.388ZM381.388 146.349C386.912 146.349 391.347 144.424 394.778 140.574C398.21 136.724 399.967 132.122 399.967 126.598C399.967 121.075 398.21 116.472 394.778 112.622C391.347 108.773 386.912 106.848 381.388 106.848H372.35V146.349H381.388ZM402.059 105.593C396.62 100.069 389.673 97.3076 381.221 97.3076H362.308V155.889H381.221C389.673 155.889 396.62 153.127 402.059 147.604C407.415 142.08 410.177 135.134 410.177 126.598C410.177 118.146 407.415 111.116 402.059 105.593Z" fill="#0E8044"/>
<path d="M548.809 242.09L571.572 183.508H581.782L604.545 242.09H594.419L589.063 228.198H564.291L558.935 242.09H548.809ZM576.677 196.145L567.89 218.992H585.464L576.677 196.145Z" fill="white"/>
<path fill-rule="evenodd" clip-rule="evenodd" d="M546.899 243.397L570.678 182.201H582.678L606.457 243.397H593.522L588.166 229.505H565.189L559.833 243.397H546.899ZM564.292 228.198H589.064L594.42 242.09H604.546L581.783 183.508H571.573L548.81 242.09H558.936L564.292 228.198ZM567.891 218.992H585.465L576.678 196.145L567.891 218.992ZM576.678 199.788L569.795 217.684H583.561L576.678 199.788Z" fill="white"/>
<path d="M530.909 242.09V183.508H540.951V242.09H530.909Z" fill="white"/>
<path fill-rule="evenodd" clip-rule="evenodd" d="M529.601 243.397V182.201H542.259V243.397H529.601ZM530.909 242.09H540.951V183.508H530.909V242.09Z" fill="white"/>
<path d="M480.946 242.09V183.508H500.194C505.968 183.508 510.655 185.266 514.253 188.613C517.768 192.045 519.609 196.396 519.609 201.752C519.609 206.271 518.438 210.037 516.178 213.134C513.835 216.23 510.655 218.322 506.554 219.327L521.2 242.09H509.483L495.591 219.996H490.988V242.09H480.946ZM498.939 210.456C502.202 210.456 504.797 209.786 506.638 208.28C508.479 206.774 509.4 204.598 509.4 201.752C509.4 198.907 508.479 196.815 506.638 195.308C504.797 193.802 502.202 193.049 498.939 193.049H490.988V210.456H498.939Z" fill="white"/>
<path fill-rule="evenodd" clip-rule="evenodd" d="M479.638 243.397V182.201H500.194C506.253 182.201 511.272 184.054 515.144 187.656L515.156 187.667L515.167 187.678C518.945 191.366 520.917 196.06 520.917 201.752C520.917 206.51 519.679 210.555 517.235 213.905L517.228 213.914L517.221 213.923C515.033 216.814 512.166 218.89 508.602 220.093L523.596 243.397H508.761L494.869 221.304H492.296V243.397H479.638ZM490.988 219.996H495.591L509.483 242.09H521.2L506.554 219.327C507.004 219.216 507.443 219.093 507.871 218.957C511.343 217.851 514.092 215.89 516.178 213.134C518.438 210.037 519.609 206.271 519.609 201.752C519.609 196.396 517.768 192.045 514.253 188.613C510.655 185.266 505.968 183.508 500.194 183.508H480.946V242.09H490.988V219.996ZM498.939 209.148C502.05 209.148 504.296 208.506 505.81 207.268C507.287 206.059 508.092 204.291 508.092 201.752C508.092 199.229 507.297 197.537 505.81 196.32C504.279 195.068 502.017 194.356 498.939 194.356H492.296V209.148H498.939ZM498.939 210.456C502.202 210.456 504.797 209.786 506.638 208.28C508.479 206.774 509.4 204.598 509.4 201.752C509.4 198.907 508.479 196.815 506.638 195.308C504.797 193.802 502.202 193.049 498.939 193.049H490.988V210.456H498.939Z" fill="white"/>
<path d="M445.303 193.049V207.276H468.736V216.816H445.303V232.549H471.246V242.09H435.261V183.508H470.744V193.049H445.303Z" fill="white"/>
<path fill-rule="evenodd" clip-rule="evenodd" d="M470.043 205.968V218.124H446.611V231.242H472.554V243.397H433.953V182.201H472.052V194.356H446.611V205.968H470.043ZM445.303 193.049H470.744V183.508H435.261V242.09H471.246V232.549H445.303V216.816H468.736V207.276H445.303V193.049Z" fill="white"/>
<path d="M385.898 242.09V183.508H404.896C410.168 183.508 414.603 184.931 418.202 187.609C421.717 190.287 423.558 194.555 423.558 200.246C423.558 202.422 423.056 204.347 422.135 206.104C421.131 207.862 420.21 209.117 419.373 209.786C418.537 210.456 417.867 210.874 417.449 211.042C417.7 211.125 418.118 211.293 418.704 211.544C419.29 211.795 420.043 212.297 420.964 212.966C421.884 213.636 422.721 214.473 423.558 215.393C424.395 216.398 425.064 217.653 425.65 219.327C426.236 221 426.571 222.842 426.571 224.766C426.571 229.871 424.646 234.056 420.964 237.236C417.198 240.5 412.511 242.09 406.988 242.09H385.898ZM406.653 232.549C409.582 232.549 411.925 231.964 413.683 230.625C415.44 229.369 416.361 227.444 416.361 224.766C416.361 222.172 415.44 220.247 413.683 218.908C411.925 217.653 409.582 216.983 406.653 216.983H395.941V232.549H406.653ZM395.941 207.443H404.561C410.419 207.443 413.348 205.1 413.348 200.246C413.348 197.819 412.511 195.978 410.921 194.806C409.247 193.635 407.155 193.049 404.561 193.049H395.941V207.443Z" fill="white"/>
<path fill-rule="evenodd" clip-rule="evenodd" d="M384.591 243.397V182.201H404.896C410.415 182.201 415.132 183.695 418.983 186.56L418.994 186.569C422.917 189.558 424.865 194.265 424.865 200.246C424.865 202.635 424.311 204.768 423.293 206.711L423.282 206.732L423.27 206.753C422.254 208.532 421.232 209.974 420.19 210.807C420.178 210.817 420.167 210.826 420.155 210.836C420.653 211.138 421.184 211.51 421.733 211.909C422.761 212.657 423.668 213.571 424.525 214.514L424.544 214.535L424.562 214.556C425.527 215.714 426.263 217.121 426.884 218.895C427.517 220.703 427.878 222.69 427.878 224.766C427.878 230.243 425.795 234.791 421.818 238.225C417.781 241.723 412.778 243.397 406.988 243.397H384.591ZM420.964 237.236C424.646 234.056 426.571 229.871 426.571 224.766C426.571 222.842 426.236 221 425.65 219.327C425.064 217.653 424.395 216.398 423.558 215.393C422.721 214.473 421.884 213.636 420.964 212.966C420.188 212.403 419.532 211.958 418.994 211.681C418.893 211.629 418.796 211.583 418.704 211.544C418.118 211.293 417.7 211.125 417.449 211.042C417.776 210.911 418.258 210.626 418.853 210.187C419.018 210.065 419.192 209.932 419.373 209.786C420.21 209.117 421.131 207.862 422.135 206.104C423.056 204.347 423.558 202.422 423.558 200.246C423.558 194.555 421.717 190.287 418.202 187.609C414.603 184.931 410.168 183.508 404.896 183.508H385.898V242.09H406.988C412.511 242.09 417.198 240.5 420.964 237.236ZM412.906 229.572L412.923 229.56C414.272 228.597 415.053 227.108 415.053 224.766C415.053 222.535 414.289 221.021 412.906 219.961C411.428 218.911 409.377 218.291 406.653 218.291H397.249V231.242H406.653C409.424 231.242 411.445 230.685 412.89 229.584L412.906 229.572ZM395.941 232.549V216.983H406.653C409.582 216.983 411.925 217.653 413.683 218.908C415.44 220.247 416.361 222.172 416.361 224.766C416.361 227.444 415.44 229.369 413.683 230.625C411.925 231.964 409.582 232.549 406.653 232.549H395.941ZM397.249 206.135H404.561C407.351 206.135 409.195 205.571 410.325 204.651C411.403 203.773 412.04 202.399 412.04 200.246C412.04 198.147 411.336 196.743 410.158 195.868C408.755 194.891 406.947 194.356 404.561 194.356H397.249V206.135ZM404.561 207.443C410.419 207.443 413.348 205.1 413.348 200.246C413.348 197.819 412.511 195.978 410.921 194.806C409.247 193.635 407.155 193.049 404.561 193.049H395.941V207.443H404.561Z" fill="white"/>
<path d="M362.308 242.09V183.508H372.35V242.09H362.308Z" fill="white"/>
<path fill-rule="evenodd" clip-rule="evenodd" d="M361 243.397V182.201H373.658V243.397H361ZM362.308 242.09H372.35V183.508H362.308V242.09Z" fill="white"/>
<g clip-path="url(#clip0_382_788)">
<path d="M28.5753 93.8517C28.5753 93.8517 -11.9927 149.405 3.54537 182.282C19.0834 215.16 140.524 140.044 194.161 153.728C247.797 167.411 311.515 199.952 329.119 188.289C346.722 176.626 315.069 99.5054 315.069 99.5054C315.069 99.5054 189.703 24.6723 28.5753 93.8517Z" fill="#FDBD02"/>
<path d="M29.7878 91.1766C29.7878 91.1766 208.779 -118.548 313.283 98.1576C315.297 102.335 252.494 69.0761 184.044 85.1532C115.595 101.23 5.45892 166.065 29.7878 91.1766Z" fill="#E00F21"/>
<path d="M289.255 214.408C288.224 210.305 286.375 206.247 284.242 202.349C282.642 199.386 280.474 196.218 278.305 193.482C271.8 185.185 262.485 177.754 251.501 171.577C245.599 168.249 238.738 165.195 230.917 162.437C228.891 161.73 226.829 161.046 224.66 160.431C219.079 158.79 213.426 157.445 207.738 156.351C200.664 155.006 193.163 154.094 185.2 153.615C180.329 153.319 175.779 153.251 171.513 153.41C164.225 153.661 156.76 154.322 149.578 155.416C146.415 155.895 144.139 156.282 142.788 156.533C128.711 159.268 115.806 163.554 104.074 169.412C98.4576 172.215 92.805 175.726 88.468 178.894C82.5667 183.225 77.3409 188.24 72.7548 193.961C71.6527 195.329 70.6218 196.788 69.5909 198.383C66.4979 203.216 64.2228 207.911 62.8008 212.493" fill="#E00F21"/>
<path d="M2.22291 155.071C2.47997 155.225 2.83995 155.328 3.35407 155.276C3.76526 155.276 4.17671 155.328 4.43377 155.431C11.0144 157.488 17.698 159.391 24.3815 161.089C27.5691 162.066 30.7565 163.043 33.9956 164.02C37.0289 164.946 40.1136 165.923 43.2498 166.952C50.7045 169.369 58.1592 171.735 65.6654 174.05C68.596 174.976 71.4237 175.85 74.097 176.673C77.8499 177.856 81.6546 178.988 85.3561 180.171C101.345 185.366 117.386 190.458 133.426 195.447C139.493 197.35 148.336 199.716 155.585 202.442C155.79 202.545 155.945 202.75 155.893 202.956C155.739 204.602 155.636 206.299 156.356 207.894C158.567 212.832 164.171 216.483 169.62 215.3C175.687 214.014 179.903 209.54 179.646 203.213C179.646 202.853 179.851 202.545 180.211 202.39C183.296 201.31 186.175 200.384 188.848 199.51C203.501 194.881 218.205 190.2 232.857 185.468C236.559 184.285 240.363 183.257 243.705 182.177C260.311 176.827 277.534 171.324 295.322 165.666C297.122 165.1 299.589 164.38 302.674 163.506C305.142 162.837 307.61 162.066 310.026 161.294L332.596 155.019C332.699 156.357 332.801 157.54 332.853 158.568C333.213 163.352 333.316 168.032 333.264 172.558C327.917 172.918 324.473 173.227 323.033 173.433C318.303 174.153 314.139 175.284 310.489 176.725C304.216 179.296 297.584 182.331 292.957 187.526C292.803 187.732 292.803 187.989 292.957 188.143C293.625 188.812 294.397 189.223 295.271 189.429C298.818 190.252 302.88 190.2 306.633 190.2C315.527 190.2 323.702 190.252 331.156 190.355C331.31 190.355 331.516 190.406 331.67 190.509C332.03 190.766 332.288 190.869 332.545 190.92L331.362 201.516C331.362 201.002 331.157 200.796 330.642 200.796H238.101C233.165 200.796 228.487 201.31 223.757 202.133C213.321 203.933 203.244 207.945 194.658 214.014C189.517 217.615 184.633 222.45 179.903 228.519C177.589 231.451 175.944 233.662 174.916 235.154C173.013 233.765 170.494 232.377 167.358 231.039C160.469 228.108 153.785 226.513 147.256 226.359C142.475 226.204 138.259 226.359 134.608 226.822C129.107 227.49 123.915 228.776 118.979 230.731C112.45 233.302 106.846 237.366 101.191 242.406C92.5021 250.224 82.6309 256.756 71.2176 257.888C68.287 258.145 65.4593 258.145 62.5805 258.248C60.6269 258.3 58.519 258.3 56.2569 258.3C48.648 258.197 41.2445 258.197 34.0983 258.3H29.4712C27.9289 258.248 26.3865 258.3 24.8442 258.351C21.708 253.413 18.8803 248.27 16.3612 242.972C16.3097 242.818 16.2583 242.664 16.2583 242.458C16.7724 242.355 17.1324 242.355 17.338 242.355C30.2939 242.407 43.1469 242.407 55.9998 242.355C57.5422 242.355 59.1875 242.458 60.8325 242.612C62.4263 242.767 64.1743 242.869 66.0766 242.869C68.5958 242.869 71.0122 242.509 73.3772 241.686C79.7523 239.526 84.7393 235.463 88.2352 229.496C91.0629 227.542 93.942 225.33 96.9753 222.81C100.677 219.724 104.739 217.204 109.211 215.198C112.964 213.552 117.591 212.06 123.092 210.826C124.583 210.517 126.074 210.466 127.617 210.157C130.496 209.591 133.58 209.694 136.46 209.591C137.231 209.591 137.282 209.386 136.614 209.026C135.74 208.563 134.66 208.151 133.477 207.74C126.177 205.425 118.825 204.088 111.422 203.728C105.098 203.471 97.8491 203.574 89.6747 204.088C89.3661 204.088 89.0576 204.036 88.7494 203.882C88.5952 203.779 88.4408 203.779 88.2867 203.882C88.1838 203.934 88.1326 204.088 88.1326 204.294C83.9681 197.453 78.2102 193.338 70.9096 191.847C69.1101 191.486 65.8713 191.281 61.2442 191.229C56.206 191.178 51.3218 191.126 46.6433 191.126C40.7824 185.263 34.1503 180.84 26.7468 177.754C20.5773 175.233 14.1508 173.433 7.57021 172.507C7.31315 172.456 6.23345 172.404 4.43403 172.25C3.35433 172.199 2.32609 171.993 1.29785 171.736C1.55465 166.283 1.70879 160.677 2.22291 155.071Z" fill="#FF2005"/>
<path d="M1.60627 171.941C2.63451 172.198 3.66275 172.404 4.74245 172.455C6.54187 172.558 7.57011 172.661 7.87863 172.713C14.4593 173.69 20.8857 175.439 27.0552 177.959C34.4584 180.993 41.0905 185.468 46.9517 191.332L2.48037 191.383C1.70894 184.954 1.45188 178.473 1.60627 171.941Z" fill="#B50004"/>
<path d="M333.367 172.661C333.522 178.885 333.316 185.005 332.699 191.075C332.494 191.023 332.185 190.92 331.825 190.663C331.671 190.56 331.517 190.509 331.311 190.509C323.856 190.406 315.682 190.355 306.787 190.355C303.034 190.355 298.973 190.406 295.425 189.583C294.5 189.377 293.729 188.966 293.112 188.297C292.958 188.143 292.958 187.834 293.112 187.68C297.739 182.434 304.371 179.399 310.643 176.879C314.294 175.387 318.458 174.307 323.188 173.587C324.627 173.278 328.021 173.021 333.367 172.661Z" fill="#B50004"/>
<path d="M2.47949 191.332L46.9508 191.281C51.6294 191.332 56.462 191.332 61.5518 191.383C66.1788 191.435 69.3665 191.641 71.2171 192.001C78.5177 193.441 84.2757 197.607 88.4401 204.448C90.4451 208.048 91.4219 212.163 91.4219 216.741C91.4219 221.267 90.4966 225.536 88.5428 229.599C84.9954 235.566 80.0598 239.629 73.6848 241.789C71.3198 242.612 68.8521 243.023 66.3842 242.972C64.4818 242.972 62.7339 242.869 61.1401 242.715C59.4948 242.509 57.8497 242.458 56.3074 242.458H17.6455C17.4399 242.458 17.0799 242.509 16.5658 242.561L16.2573 242.458C16.1031 242.406 16.0002 242.303 15.9488 242.149C15.6402 240.915 15.3317 239.937 15.0234 239.063C13.584 235.103 12.0929 231.245 10.602 227.542C10.499 227.285 10.3449 226.976 10.1908 226.719C10.0366 226.41 9.93371 226.05 9.98517 225.639C25.6658 225.639 41.2435 225.587 56.7186 225.536C58.775 225.536 60.3689 226.77 62.3739 227.079C66.7954 227.85 70.3427 226.513 73.0163 223.067C75.1242 220.289 75.5869 216.123 73.8904 212.934C71.8339 209.077 68.3892 207.277 63.6594 207.482C62.1171 207.534 60.5233 207.688 58.9809 207.894C57.2329 208.151 55.6391 208.099 53.8912 208.099C37.6964 207.997 21.4502 207.997 5.15276 208.099C4.84424 207.482 4.6901 206.659 4.58718 205.682C4.48425 204.499 4.43304 203.676 4.33012 203.213C3.55919 199.304 2.99361 195.344 2.47949 191.332Z" fill="white"/>
<path d="M331.516 201.619L328.02 217.461L244.013 217.615C238.152 217.409 232.599 217.975 227.304 219.312C209.053 223.993 195.017 237.777 189.516 255.831C189.259 256.654 189.054 258.042 188.899 259.945C188.848 260.202 188.642 260.305 188.282 260.254C185.763 257.991 183.604 256.191 181.856 254.905C177.948 251.973 173.63 249.453 168.951 247.395L175.069 235.205C176.097 233.714 177.743 231.502 180.056 228.57C184.786 222.501 189.722 217.666 194.812 214.066C203.449 207.997 213.474 203.985 223.911 202.185C228.589 201.362 233.319 200.847 238.255 200.847H330.796C331.259 200.899 331.516 201.156 331.516 201.619Z" fill="#012521"/>
<path d="M88.4921 229.65C90.4456 225.587 91.4227 221.318 91.3712 216.792C91.3712 212.163 90.343 208.048 88.3894 204.499C88.338 204.293 88.3894 204.19 88.5436 204.088C88.6977 203.985 88.8521 203.985 89.0062 204.088C89.2633 204.242 89.5718 204.345 89.9315 204.293C98.106 203.779 105.355 203.625 111.679 203.933C119.082 204.242 126.434 205.579 133.734 207.945C134.917 208.305 135.945 208.768 136.871 209.231C137.59 209.591 137.539 209.797 136.716 209.797C133.837 209.9 130.701 209.797 127.873 210.363C126.383 210.62 124.84 210.671 123.349 211.031C117.848 212.266 113.221 213.757 109.468 215.403C104.995 217.409 100.934 219.929 97.2321 223.015C94.1986 225.433 91.2683 227.696 88.4921 229.65Z" fill="#B50004"/>
<path d="M9.88277 225.639L5.10156 208.1C21.3478 207.997 37.594 207.997 53.84 208.1C55.5879 208.1 57.2332 208.1 58.9297 207.894C60.4721 207.688 62.0659 207.534 63.6082 207.482C68.3382 207.277 71.7827 209.077 73.8392 212.934C75.5357 216.123 75.073 220.29 72.9651 223.067C70.2915 226.513 66.7442 227.85 62.3227 227.079C60.3691 226.719 58.7753 225.484 56.6674 225.536C41.1414 225.587 25.5634 225.639 9.88277 225.639Z" fill="#B50004"/>
<path d="M327.969 217.512C326.427 223.015 324.679 228.467 322.674 233.765L283.549 233.611C281.133 231.502 278.151 229.187 274.552 226.719C268.897 222.861 262.881 220.135 256.558 218.592C255.992 218.438 255.17 218.335 254.09 218.232C250.697 217.975 247.304 217.769 243.962 217.615L327.969 217.512Z" fill="#3E9D64"/>
<path d="M244.014 217.666C247.407 217.821 250.8 218.026 254.142 218.283C255.222 218.386 256.044 218.489 256.61 218.644C262.933 220.187 268.948 222.913 274.604 226.77C278.203 229.239 281.184 231.502 283.601 233.662C285.76 235.72 287.817 237.777 289.822 239.835C292.906 243.023 296.351 245.698 300.258 247.755C304.937 250.276 309.769 251.304 314.808 250.79C314.191 252.179 313.317 253.722 312.289 255.316C309.667 259.379 306.942 263.391 304.217 267.403C304.114 267.198 303.96 267.095 303.754 267.043C302.931 266.735 301.595 266.323 299.795 265.757C295.271 264.42 290.901 261.9 287.096 258.711C281.852 254.287 276.454 248.167 272.65 244.875C266.12 239.217 258.82 235.565 250.543 234.177C248.692 233.868 246.995 233.714 245.401 233.662C242.934 233.611 240.723 233.662 238.666 233.765C229.618 234.28 219.644 238.497 213.166 245.544C208.282 250.841 205.249 256.602 204.066 264.112C199.13 262.003 194.041 260.614 188.899 259.945C189.054 258.042 189.259 256.654 189.516 255.831C195.018 237.777 209.104 223.993 227.304 219.312C232.549 218.026 238.152 217.461 244.014 217.666Z" fill="#96E095"/>
<path d="M175.018 235.308L168.9 247.498C162.576 244.824 156.664 243.332 151.111 243.126C146.433 242.921 142.32 242.921 138.773 243.023C129.004 243.383 119.442 247.241 111.164 252.744C109.725 253.722 107.154 255.676 103.452 258.659C100.419 261.128 97.283 263.546 93.9927 266.015C88.1833 270.438 81.8594 273.267 75.0218 274.553C72.5026 275.016 69.2635 275.324 65.3564 275.478C60.3694 275.684 55.5367 275.633 50.8069 275.324C47.9278 275.17 44.4319 274.604 40.1646 273.73C38.5707 273.421 36.9769 273.37 35.3319 273.267L24.998 258.505C26.5404 258.454 28.0828 258.402 29.6251 258.454C31.7331 258.505 33.2754 258.505 34.2522 258.454C41.3984 258.351 48.7505 258.351 56.4108 258.454C58.6214 258.505 60.7293 258.454 62.7344 258.402C65.6135 258.299 68.4926 258.299 71.3715 258.042C82.785 256.962 92.656 250.378 101.345 242.56C106.948 237.52 112.552 233.456 119.133 230.885C124.017 228.93 129.261 227.644 134.762 226.976C138.413 226.513 142.628 226.359 147.41 226.513C153.939 226.719 160.623 228.262 167.512 231.193C170.597 232.531 173.116 233.868 175.018 235.308Z" fill="#B50004"/>
<path d="M322.724 233.765C320.668 239.577 317.84 245.132 314.858 250.79C309.82 251.253 304.987 250.276 300.309 247.755C296.401 245.647 292.906 243.023 289.872 239.835C287.867 237.726 285.811 235.668 283.651 233.662L322.724 233.765Z" fill="#012521"/>
<path d="M304.217 267.455C301.286 271.57 299.384 274.193 298.408 275.273C296.66 277.33 294.963 279.336 293.266 281.393C291.672 280.673 290.079 280.005 288.536 279.49C287.611 279.182 285.76 278.05 282.984 276.199C280.567 274.553 277.637 272.29 274.244 269.358C273.678 268.895 272.702 267.763 271.827 267.455C271.519 267.352 271.159 267.558 270.799 268.072C269.668 265.14 268.177 262.671 266.275 260.665C261.391 255.471 254.862 252.487 247.664 252.385C246.79 252.385 245.916 252.282 245.093 252.179C239.644 250.739 234.708 251.407 230.132 254.185C224.066 257.939 220.518 263.494 219.49 270.901C218.667 276.867 219.953 282.474 223.397 287.72C220.878 286.794 218.616 285.714 216.662 284.428C212.292 281.651 208.179 278.513 204.426 275.118C203.912 271.107 203.758 267.455 204.066 264.163C205.249 256.654 208.282 250.893 213.166 245.595C219.696 238.549 229.618 234.331 238.667 233.817C240.672 233.714 242.934 233.662 245.402 233.714C246.996 233.714 248.692 233.92 250.543 234.228C258.82 235.617 266.121 239.217 272.65 244.926C276.455 248.218 281.801 254.339 287.097 258.762C290.901 261.951 295.271 264.471 299.796 265.809C301.647 266.375 302.932 266.786 303.755 267.095C303.96 267.095 304.114 267.249 304.217 267.455Z" fill="#012521"/>
<path d="M168.9 247.447C173.579 249.504 177.897 252.024 181.805 254.956C183.553 256.242 185.712 258.042 188.231 260.305C191.984 263.649 195.583 266.632 199.336 270.387C200.982 271.981 202.627 273.575 204.375 275.119C208.127 278.513 212.24 281.651 216.61 284.428C218.564 285.663 220.826 286.794 223.345 287.72C230.286 290.6 237.587 291.526 245.247 290.497C248.486 289.932 251.056 288.646 252.959 286.64C257.072 282.319 257.432 276.199 253.37 271.672C251.314 269.358 246.995 267.558 243.807 268.998C243.345 269.203 242.831 269.409 242.265 269.564C239.849 269.666 237.741 268.844 235.941 267.095C233.217 264.523 232.548 260.511 234.502 257.322C235.479 255.728 236.661 254.596 238.049 253.876C239.9 252.899 242.265 252.333 245.041 252.127C245.864 252.23 246.738 252.333 247.612 252.333C254.81 252.436 261.339 255.419 266.223 260.614C268.126 262.62 269.616 265.089 270.747 268.021C271.57 269.718 272.136 271.621 272.393 273.781C273.01 278.462 272.598 282.936 271.159 287.206C269.565 292.915 266.275 297.492 261.236 300.99L260.414 301.607C255.633 304.539 251.057 306.288 246.584 306.854C243.808 307.214 239.489 307.316 233.577 307.111C232.549 307.059 231.623 306.956 230.801 306.854C228.384 306.442 226.019 306.082 223.706 305.413C218.154 303.819 212.858 301.401 207.768 298.161C204.735 296.207 201.599 293.789 198.309 290.857C193.27 286.331 187.975 281.548 182.885 276.713C180.623 274.553 178.361 272.547 176.047 270.644C171.163 266.632 165.765 263.597 159.75 261.437C153.426 259.225 146.588 259.122 139.853 259.534C132.604 259.997 125.766 262.208 119.34 266.22C116.255 268.123 113.581 270.078 111.217 272.032C107.669 275.016 104.225 277.896 100.883 280.673C97.284 283.657 92.9655 286.177 87.927 288.337C82.2202 290.755 75.9993 291.937 69.2645 291.937C63.7121 291.937 58.0568 292.04 52.2986 292.246C51.1162 291.115 49.8821 289.88 48.5968 288.543C45.5121 285.303 42.3759 282.114 39.7027 278.667C38.2632 276.764 36.5665 275.376 35.0241 273.627C34.9727 273.575 34.9727 273.524 34.9727 273.473C34.9727 273.164 35.1268 273.061 35.4353 273.215C37.0806 273.318 38.6742 273.37 40.268 273.678C44.4839 274.553 48.0312 275.118 50.9104 275.273C55.6404 275.581 60.473 275.633 65.4598 275.427C69.3672 275.273 72.606 274.964 75.1252 274.501C81.9629 273.215 88.2352 270.387 94.0961 265.963C97.335 263.494 100.523 261.025 103.556 258.608C107.258 255.625 109.828 253.67 111.268 252.693C119.545 247.19 129.108 243.332 138.876 242.972C142.475 242.818 146.588 242.869 151.215 243.075C156.664 243.281 162.628 244.772 168.9 247.447Z" fill="white"/>
<path d="M245.093 252.179C242.317 252.384 240.003 253.002 238.101 253.927C236.713 254.647 235.53 255.779 234.554 257.374C232.6 260.562 233.268 264.574 235.993 267.146C237.844 268.895 239.952 269.718 242.317 269.615C239.283 270.026 237.175 271.878 236.147 275.17C234.245 281.033 236.713 286.794 242.214 289.263C243.19 289.726 244.219 290.137 245.298 290.497C237.638 291.526 230.337 290.6 223.397 287.72C219.952 282.473 218.667 276.867 219.489 270.901C220.518 263.494 224.065 257.888 230.132 254.185C234.708 251.356 239.644 250.687 245.093 252.179Z" fill="#3E9D64"/>
<path d="M260.466 301.659C260.826 301.864 260.98 302.019 260.928 302.121C260.825 302.43 261.031 302.739 261.391 302.841H261.442C262.676 303.047 263.807 303.253 264.887 303.356C265.196 303.407 265.247 303.304 264.939 303.15L261.34 301.041C266.378 297.544 269.669 292.915 271.262 287.257C275.632 288.388 279.128 290.549 281.75 293.789C275.838 299.292 271.725 302.893 269.411 304.59C267.149 306.288 264.836 307.933 262.522 309.528C255.016 314.826 247.047 319.249 238.564 322.798C235.171 322.85 231.778 322.85 228.385 322.901C225.66 322.952 222.267 322.387 218.205 321.255C211.727 319.455 205.661 316.626 199.903 312.717C197.229 310.917 194.556 308.859 191.882 306.493C187.512 302.636 183.656 299.138 180.263 295.949C177.075 292.915 173.631 290.034 169.929 287.308C169.107 286.845 168.233 286.177 167.41 285.354C166.176 284.119 165.405 283.399 165.097 283.193C159.39 278.667 152.758 276.456 145.149 276.558C144.018 276.558 142.887 276.558 141.653 276.61C140.419 276.661 139.236 276.764 138.208 276.919C129.879 278.41 122.373 281.959 115.741 287.668C114.61 288.646 113.428 289.726 112.142 290.909C111.988 291.012 111.885 291.166 111.68 291.269C111.525 291.372 111.371 291.474 111.268 291.629C110.446 292.555 109.52 293.378 108.595 294.149C108.132 294.303 107.772 294.612 107.515 295.075C104.996 297.287 102.528 299.138 100.215 300.681C94.0451 304.642 87.156 306.905 79.4442 307.419C77.1307 307.573 75.3827 307.625 73.2233 307.265C72.6062 307.162 71.7839 307.213 70.8068 307.368C67.2595 305.31 64.3289 303.253 62.0153 301.196C59.3933 298.83 56.7712 296.515 54.0465 294.252C53.5324 293.789 52.9153 293.172 52.2471 292.4C58.0053 292.195 63.6606 292.092 69.213 292.092C75.948 292.092 82.1689 290.909 87.8754 288.491C92.9137 286.382 97.2325 283.811 100.831 280.828C104.173 278.05 107.618 275.17 111.165 272.187C113.53 270.181 116.255 268.226 119.288 266.374C125.715 262.414 132.604 260.151 139.802 259.688C146.537 259.276 153.374 259.379 159.698 261.591C165.713 263.7 171.163 266.786 175.996 270.798C178.309 272.701 180.571 274.707 182.833 276.867C187.923 281.702 193.219 286.485 198.257 291.011C201.547 293.943 204.683 296.361 207.717 298.315C212.806 301.555 218.102 303.973 223.654 305.567C226.019 306.236 228.333 306.596 230.749 307.008C231.572 307.162 232.497 307.265 233.525 307.265C239.438 307.47 243.756 307.419 246.533 307.008C251.057 306.339 255.684 304.59 260.466 301.659Z" fill="#012521"/>
<path d="M188.899 259.997C194.092 260.665 199.13 262.054 204.066 264.163C203.757 267.506 203.911 271.158 204.426 275.119C202.678 273.575 200.981 271.981 199.387 270.387C195.634 266.683 192.035 263.649 188.282 260.305C188.59 260.408 188.848 260.254 188.899 259.997Z" fill="#3E9D64"/>
<path d="M293.317 281.393L281.749 293.738C279.127 290.497 275.631 288.337 271.261 287.206C272.7 282.988 273.112 278.513 272.495 273.781C272.238 271.621 271.672 269.718 270.85 268.02C271.21 267.506 271.569 267.3 271.878 267.403C272.803 267.763 273.729 268.843 274.294 269.306C277.688 272.238 280.618 274.501 283.034 276.147C285.811 277.999 287.661 279.13 288.587 279.439C290.129 280.056 291.723 280.673 293.317 281.393Z" fill="#3E9D64"/>
<path d="M245.298 290.497C244.219 290.137 243.19 289.674 242.214 289.263C236.764 286.794 234.245 281.034 236.147 275.17C237.227 271.827 239.283 269.975 242.317 269.615C242.882 269.461 243.396 269.255 243.859 269.049C247.047 267.609 251.314 269.409 253.422 271.724C257.483 276.199 257.072 282.371 253.01 286.691C251.108 288.646 248.537 289.932 245.298 290.497Z" fill="#012521"/>
<path d="M145.199 276.507C143.143 276.713 141.138 277.845 139.235 279.85C135.945 283.297 136.305 287.617 139.441 290.857C140.623 292.092 142.269 292.452 143.759 293.429C135.174 293.995 127.925 296.772 121.292 302.584C117.642 305.773 114.506 308.499 111.884 310.66C108.182 313.746 103.967 316.214 99.2366 318.066C98.2599 318.478 95.7919 319.095 91.936 319.969C86.5378 317.037 81.2424 313.951 75.8954 310.762C74.1474 309.682 72.4507 308.499 70.8057 307.214C71.8339 307.059 72.6051 307.008 73.2221 307.111C75.3815 307.471 77.1295 307.419 79.443 307.265C87.1034 306.751 94.044 304.539 100.213 300.527C102.527 299.035 104.943 297.184 107.514 294.921C107.925 294.921 108.285 294.612 108.594 293.995C109.57 293.223 110.445 292.4 111.267 291.475C111.37 291.32 111.524 291.217 111.678 291.115C111.833 291.012 111.987 290.909 112.141 290.755C113.426 289.572 114.609 288.492 115.74 287.514C122.372 281.805 129.878 278.256 138.207 276.764C139.235 276.559 140.418 276.456 141.652 276.456C142.886 276.559 144.068 276.507 145.199 276.507Z" fill="#96E095"/>
<path d="M145.199 276.507C152.808 276.353 159.44 278.564 165.147 283.142C165.455 283.399 166.227 284.119 167.46 285.302C168.283 286.125 169.157 286.794 169.979 287.257C170.442 288.285 170.905 289.211 171.368 290.086C172.087 291.372 172.55 292.297 172.807 292.863C174.915 298.212 175.532 303.767 174.555 309.579C174.144 311.997 173.321 314.363 172.087 316.677C168.232 323.775 161.857 329.176 153.836 330.667C150.443 331.285 147.05 331.285 143.708 330.77C140.829 329.587 138.207 327.941 137.281 324.804C135.996 320.586 139.544 316.677 143.194 315.237C143.399 315.185 143.554 315.031 143.656 314.877C143.759 314.723 143.862 314.671 143.965 314.671C144.633 314.568 145.61 314.568 146.947 314.568C152.191 314.723 155.79 312.717 157.692 308.499C158.977 305.619 159.08 302.687 157.743 299.91C156.201 296.721 153.836 294.715 150.597 293.84C148.644 293.326 146.073 293.583 143.862 293.429C142.371 292.4 140.726 292.04 139.544 290.857C136.407 287.617 136.048 283.245 139.338 279.85C141.138 277.844 143.143 276.764 145.199 276.507Z" fill="white"/>
<path d="M238.563 322.798C237.329 323.467 236.096 324.084 234.861 324.598C232.394 325.678 229.874 326.758 227.407 327.787C221.649 330.153 215.839 332.159 209.875 333.754C208.076 333.496 206.945 333.291 206.431 333.188C205.094 332.879 203.5 332.416 201.752 331.748C193.218 328.662 185.814 323.209 179.748 316.163C177.537 313.591 175.789 311.38 174.555 309.528C175.532 303.716 174.915 298.161 172.807 292.812C172.602 292.246 172.087 291.32 171.368 290.034C170.905 289.16 170.442 288.234 169.979 287.206C173.681 289.932 177.074 292.812 180.313 295.847C183.655 299.035 187.562 302.584 191.933 306.391C194.606 308.757 197.279 310.814 199.953 312.614C205.711 316.472 211.778 319.352 218.256 321.152C222.317 322.284 225.71 322.85 228.435 322.798C231.725 322.85 235.119 322.85 238.563 322.798Z" fill="#3E9D64"/>
<path d="M143.76 293.48C145.97 293.583 148.541 293.326 150.495 293.892C153.734 294.766 156.099 296.824 157.641 299.961C158.978 302.739 158.875 305.67 157.589 308.551C155.687 312.768 152.088 314.774 146.844 314.62C143.503 314.568 139.801 314.311 136.716 314.877C133.837 315.391 131.112 316.369 128.644 317.757C123.092 320.844 118.259 324.444 114.352 329.33C114.3 329.433 114.198 329.485 114.043 329.485C113.992 329.485 113.94 329.536 113.889 329.536C112.295 329.022 110.702 328.456 109.108 327.787C103.35 325.37 97.5918 322.798 91.9365 320.021C95.7924 319.146 98.2089 318.529 99.2371 318.118C103.967 316.266 108.183 313.797 111.885 310.711C114.507 308.551 117.643 305.876 121.293 302.636C127.873 296.823 135.174 294.046 143.76 293.48Z" fill="#012521"/>
<path d="M108.594 294.098C108.286 294.715 107.926 294.972 107.515 295.024C107.772 294.509 108.132 294.201 108.594 294.098Z" fill="#3E9D64"/>
<path d="M261.287 301.041L264.886 303.15C265.195 303.305 265.143 303.356 264.835 303.356C263.755 303.253 262.624 303.099 261.39 302.842C261.081 302.79 260.824 302.482 260.876 302.173V302.121C260.927 302.019 260.722 301.813 260.413 301.659L261.287 301.041Z" fill="#3E9D64"/>
<path d="M174.504 309.579C175.789 311.431 177.485 313.643 179.696 316.214C185.763 323.261 193.166 328.713 201.7 331.799C203.5 332.416 205.042 332.931 206.379 333.239C206.893 333.342 208.024 333.548 209.824 333.805C202.369 335.759 194.76 337.302 187.151 338.023C186.38 338.125 185.557 338.177 184.786 338.331C183.141 338.588 181.547 338.486 179.799 338.743C178.565 338.897 177.177 339 175.635 339C171.007 339 166.483 339 162.01 338.948C161.291 338.948 160.519 338.897 159.697 338.794C158.926 338.691 158.154 338.64 157.332 338.64C155.789 338.537 154.247 338.383 152.756 338.125L152.551 337.92C152.448 337.817 152.396 337.663 152.396 337.508C152.396 337.405 152.448 337.354 152.551 337.303C152.654 337.251 152.705 337.148 152.654 337.045C152.602 336.274 152.808 335.605 153.168 334.988C153.476 334.525 153.682 333.959 153.682 333.291C153.733 332.416 153.733 331.542 153.63 330.616C161.651 329.176 168.077 323.775 171.882 316.626C173.27 314.363 174.092 311.997 174.504 309.579Z" fill="#012521"/>
<path d="M146.845 314.569C145.508 314.517 144.479 314.569 143.863 314.671C143.76 314.671 143.657 314.774 143.554 314.877C143.451 315.031 143.297 315.186 143.092 315.237C139.441 316.677 135.894 320.535 137.179 324.804C138.156 327.942 140.727 329.587 143.606 330.77C142.372 330.976 141.087 331.182 139.801 331.285C138.156 331.439 136.871 331.645 136.048 331.902C133.838 332.519 131.73 333.393 129.57 334.474C127.514 334.062 125.2 333.445 122.578 332.622C119.905 331.748 117.18 330.925 114.455 330.102C114.25 330.05 114.095 329.845 113.89 329.536C113.941 329.536 113.993 329.484 114.044 329.484C114.147 329.484 114.249 329.382 114.352 329.33C118.26 324.444 123.092 320.792 128.645 317.757C131.112 316.369 133.837 315.391 136.716 314.877C139.801 314.26 143.503 314.569 146.845 314.569Z" fill="#96E095"/>
<path d="M153.733 330.667C153.836 331.542 153.836 332.468 153.785 333.342C153.733 333.959 153.579 334.525 153.271 335.039C152.859 335.657 152.705 336.325 152.756 337.097C152.756 337.2 152.705 337.302 152.654 337.354C152.551 337.405 152.499 337.508 152.499 337.56C152.448 337.714 152.499 337.868 152.654 337.971L152.859 338.177C147.204 337.611 140.572 336.634 132.86 335.296C131.523 335.039 130.443 334.782 129.621 334.473C131.729 333.342 133.888 332.468 136.099 331.902C136.973 331.645 138.207 331.439 139.852 331.285C141.137 331.182 142.423 330.976 143.656 330.77C146.998 331.285 150.34 331.285 153.733 330.667Z" fill="#3E9D64"/>
<path fill-rule="evenodd" clip-rule="evenodd" d="M141.146 239.881V2.99316H150.362V239.881H141.146Z" fill="black"/>
<path fill-rule="evenodd" clip-rule="evenodd" d="M138.161 2.42994C138.161 2.4298 138.161 2.43039 142.257 2.80999C146.354 3.18959 146.354 3.19161 146.354 3.19434L146.353 3.2034L146.35 3.23434C146.347 3.26066 146.344 3.29831 146.339 3.34712C146.329 3.44474 146.315 3.58699 146.296 3.77243C146.258 4.14332 146.2 4.68704 146.119 5.39207C145.958 6.80205 145.706 8.85774 145.343 11.467C144.616 16.6844 143.441 24.1208 141.643 33.0377C138.052 50.8537 131.958 74.6667 121.945 98.5281C102.02 146.012 65.8574 195.176 1.69727 195.176V186.944C60.6687 186.944 94.7865 141.983 114.358 95.3417C124.094 72.1406 130.053 48.8911 133.577 31.4103C135.338 22.6788 136.486 15.4082 137.193 10.3307C137.547 7.7925 137.79 5.80375 137.944 4.45617C138.021 3.78242 138.076 3.26907 138.111 2.92759C138.129 2.75685 138.142 2.62909 138.15 2.54574L138.159 2.45421L138.161 2.42994Z" fill="black"/>
<path fill-rule="evenodd" clip-rule="evenodd" d="M1.38867 186.944H334.847V195.176H1.38867V186.944Z" fill="black"/>
<path fill-rule="evenodd" clip-rule="evenodd" d="M121.354 188.282V76.361H130.67V188.282H121.354Z" fill="black"/>
<path fill-rule="evenodd" clip-rule="evenodd" d="M92.7178 188.282V134.945H102.033V188.282H92.7178Z" fill="black"/>
<path fill-rule="evenodd" clip-rule="evenodd" d="M64.8008 191.162V166.937H74.1158V191.162H64.8008Z" fill="black"/>
<path fill-rule="evenodd" clip-rule="evenodd" d="M186.338 238.978V2.08984H195.553V238.978H186.338Z" fill="black"/>
<path fill-rule="evenodd" clip-rule="evenodd" d="M190.344 2.47413C190.343 2.47139 190.343 2.46937 194.44 2.08977C197.777 1.78057 198.396 1.72284 198.51 1.71213C198.536 1.7097 198.536 1.7097 198.536 1.70972L198.539 1.734L198.548 1.82552C198.556 1.90887 198.568 2.03663 198.586 2.20737C198.621 2.54886 198.676 3.06221 198.753 3.73596C198.907 5.08354 199.15 7.07228 199.504 9.61051C200.211 14.6879 201.36 21.9586 203.12 30.6901C206.644 48.1709 212.603 71.4204 222.339 94.6214C241.911 141.263 276.029 186.224 335 186.224V194.455C270.84 194.455 234.678 145.292 214.752 97.8078C204.739 73.9465 198.646 50.1335 195.054 32.3175C193.257 23.4006 192.081 15.9642 191.355 10.7467C190.991 8.13752 190.74 6.08184 190.578 4.67186C190.498 3.96682 190.44 3.42311 190.401 3.05222C190.382 2.86677 190.368 2.72452 190.358 2.6269C190.354 2.5781 190.35 2.54044 190.348 2.51413L190.344 2.47413Z" fill="black"/>
<path fill-rule="evenodd" clip-rule="evenodd" d="M206.029 187.562V75.6923H215.344V187.562H206.029Z" fill="black"/>
<path fill-rule="evenodd" clip-rule="evenodd" d="M234.665 187.562V134.225H243.98V187.562H234.665Z" fill="black"/>
<path fill-rule="evenodd" clip-rule="evenodd" d="M262.582 190.442V166.217H271.897V190.442H262.582Z" fill="black"/>
<path fill-rule="evenodd" clip-rule="evenodd" d="M141.435 109.917L168.192 83.1481L194.95 109.917L168.192 136.687L141.435 109.917ZM153.071 109.917L168.192 125.045L183.314 109.917L168.192 94.7895L153.071 109.917Z" fill="black"/>
<path fill-rule="evenodd" clip-rule="evenodd" d="M141.444 33.2261L168.202 6.45668L194.96 33.226L168.202 59.9954L141.444 33.2261ZM153.081 33.2261L168.202 48.354L183.323 33.226L168.202 18.0981L153.081 33.2261Z" fill="black"/>
<path fill-rule="evenodd" clip-rule="evenodd" d="M168.221 162.196L192.054 186.04L186.236 191.861L168.221 173.838L150.205 191.861L144.387 186.04L168.221 162.196Z" fill="black"/>
</g>
<defs>
<clipPath id="clip0_382_788">
<rect width="335" height="339" fill="white"/>
</clipPath>
</defs>
</svg>
