<svg width="180" height="51" viewBox="0 0 180 51" fill="none" xmlns="http://www.w3.org/2000/svg">
<g clip-path="url(#clip0_508_3223)">
<path d="M91.2765 10.6986H87.5348L86.6333 13.435H84.6309L88.3885 2.75244H90.4787L94.2444 13.435H92.2419L91.2765 10.6986ZM89.4017 4.60335C89.4017 4.60335 89.1624 5.65645 88.9469 6.26278L87.9976 9.11891H90.7979L89.8485 6.26278C89.657 5.65645 89.4336 4.60335 89.4336 4.60335H89.4017Z" fill="white"/>
<path d="M96.0634 10.6986C96.7925 11.3752 97.7349 11.7759 98.728 11.8315C99.5258 11.8315 100.276 11.4087 100.276 10.5311C100.276 8.62432 95.2336 8.93547 95.2336 5.67246C95.2336 3.90134 96.7734 2.57699 98.8158 2.57699C99.9867 2.53271 101.13 2.94131 102.007 3.71785L101.161 5.31345C100.492 4.74047 99.6484 4.41141 98.7679 4.38003C97.8664 4.38003 97.1723 4.90657 97.1723 5.6565C97.1723 7.55527 102.19 7.09255 102.19 10.5071C102.19 12.2065 100.898 13.6345 98.6722 13.6345C97.992 13.6456 97.3162 13.5224 96.6838 13.2719C96.0513 13.0213 95.4744 12.6484 94.9863 12.1745L96.0634 10.6986Z" fill="white"/>
<path d="M109.243 2.57696C109.966 2.55981 110.685 2.68824 111.357 2.95459C112.03 3.22094 112.641 3.61979 113.156 4.12741C113.672 4.63502 114.079 5.24103 114.355 5.9094C114.631 6.57777 114.77 7.29484 114.764 8.01797C114.764 9.48217 114.182 10.8864 113.147 11.9218C112.111 12.9571 110.707 13.5388 109.243 13.5388C107.779 13.5388 106.375 12.9571 105.339 11.9218C104.304 10.8864 103.722 9.48217 103.722 8.01797C103.716 7.29484 103.854 6.57777 104.131 5.9094C104.407 5.24103 104.814 4.63502 105.329 4.12741C105.844 3.61979 106.456 3.22094 107.129 2.95459C107.801 2.68824 108.52 2.55981 109.243 2.57696ZM109.243 11.8474C109.728 11.8343 110.206 11.724 110.648 11.5231C111.089 11.3222 111.486 11.0347 111.815 10.6777C112.144 10.3206 112.398 9.90131 112.562 9.44447C112.725 8.98763 112.796 8.50257 112.769 8.01797C112.792 7.54131 112.718 7.06501 112.551 6.61791C112.384 6.1708 112.128 5.76219 111.799 5.41684C111.47 5.07148 111.074 4.79654 110.635 4.6087C110.196 4.42085 109.724 4.32401 109.247 4.32401C108.77 4.32401 108.297 4.42085 107.859 4.6087C107.42 4.79654 107.024 5.07148 106.695 5.41684C106.366 5.76219 106.11 6.1708 105.943 6.61791C105.776 7.06501 105.702 7.54131 105.725 8.01797C105.697 8.50217 105.766 8.98705 105.929 9.44385C106.092 9.90065 106.345 10.3201 106.673 10.6772C107.002 11.0344 107.398 11.322 107.839 11.523C108.281 11.724 108.758 11.8343 109.243 11.8474Z" fill="white"/>
<path d="M121.761 2.5769C123.215 2.52579 124.631 3.05039 125.702 4.03688L124.784 5.4809C123.969 4.78103 122.938 4.38126 121.864 4.34802C121.382 4.3329 120.902 4.41817 120.455 4.59842C120.008 4.77867 119.603 5.04996 119.266 5.39506C118.929 5.74016 118.668 6.15153 118.498 6.60306C118.329 7.05459 118.255 7.53641 118.282 8.01791C118.253 8.50898 118.324 9.00087 118.491 9.46344C118.659 9.92601 118.919 10.3495 119.256 10.708C119.593 11.0666 119.999 11.3525 120.45 11.5484C120.902 11.7444 121.388 11.8461 121.88 11.8474C123.049 11.8053 124.159 11.3205 124.984 10.4911L126.005 11.8873C125.459 12.4454 124.806 12.8867 124.085 13.1843C123.363 13.482 122.589 13.6297 121.808 13.6185C120.344 13.6185 118.94 13.0368 117.905 12.0015C116.869 10.9661 116.288 9.5619 116.288 8.0977C116.288 6.63349 116.869 5.22925 117.905 4.1939C118.94 3.15856 120.344 2.5769 121.808 2.5769H121.761Z" fill="white"/>
<path d="M128.047 2.75244H129.986V13.435H128.047V2.75244Z" fill="white"/>
<path d="M138.275 10.6986H134.533L133.632 13.435H131.629L135.387 2.75244H137.421L141.187 13.435H139.184L138.275 10.6986ZM136.4 4.60335C136.4 4.60335 136.161 5.65645 135.945 6.26278L134.996 9.11891H137.796L136.847 6.26278C136.655 5.65645 136.432 4.60335 136.432 4.60335H136.4Z" fill="white"/>
<path d="M147.514 2.57682C148.971 2.52445 150.39 3.04909 151.463 4.0368L150.529 5.48081C149.714 4.78095 148.683 4.38118 147.609 4.34794C147.127 4.33281 146.647 4.41809 146.2 4.59833C145.753 4.77858 145.348 5.04988 145.011 5.39498C144.674 5.74008 144.413 6.15145 144.243 6.60298C144.074 7.05451 144 7.53633 144.027 8.01783C143.998 8.5089 144.069 9.00079 144.237 9.46336C144.404 9.92593 144.664 10.3494 145.001 10.708C145.338 11.0665 145.744 11.3525 146.196 11.5484C146.647 11.7443 147.133 11.846 147.625 11.8473C148.792 11.8056 149.899 11.3206 150.721 10.491L151.742 11.8872C151.196 12.4453 150.543 12.8866 149.822 13.1843C149.1 13.4819 148.326 13.6296 147.545 13.6184C146.081 13.6184 144.677 13.0367 143.642 12.0014C142.606 10.966 142.025 9.56182 142.025 8.09762C142.025 6.63341 142.606 5.22917 143.642 4.19382C144.677 3.15847 146.081 2.57682 147.545 2.57682H147.514Z" fill="white"/>
<path d="M153.8 2.75244H155.747V13.435H153.8V2.75244Z" fill="white"/>
<path d="M163.509 2.5769C164.232 2.55975 164.951 2.68817 165.624 2.95453C166.296 3.22088 166.908 3.61973 167.423 4.12735C167.938 4.63496 168.346 5.24097 168.622 5.90934C168.898 6.57771 169.037 7.29478 169.03 8.01791C169.03 9.48211 168.449 10.8863 167.413 11.9217C166.378 12.957 164.974 13.5387 163.509 13.5387C162.045 13.5387 160.641 12.957 159.606 11.9217C158.57 10.8863 157.989 9.48211 157.989 8.01791C157.982 7.29478 158.121 6.57771 158.397 5.90934C158.673 5.24097 159.081 4.63496 159.596 4.12735C160.111 3.61973 160.723 3.22088 161.395 2.95453C162.067 2.68817 162.786 2.55975 163.509 2.5769ZM163.509 11.8474C163.994 11.8343 164.472 11.7239 164.913 11.5229C165.354 11.3219 165.751 11.0343 166.079 10.6772C166.407 10.32 166.66 9.90059 166.823 9.44379C166.986 8.98699 167.056 8.50211 167.028 8.01791C167.05 7.54125 166.976 7.06495 166.809 6.61785C166.643 6.17074 166.387 5.76213 166.057 5.41678C165.728 5.07142 165.332 4.79648 164.894 4.60864C164.455 4.42079 163.983 4.32395 163.505 4.32395C163.028 4.32395 162.556 4.42079 162.117 4.60864C161.679 4.79648 161.283 5.07142 160.953 5.41678C160.624 5.76213 160.368 6.17074 160.202 6.61785C160.035 7.06495 159.96 7.54125 159.983 8.01791C159.956 8.50251 160.027 8.98757 160.191 9.44441C160.355 9.90125 160.609 10.3206 160.937 10.6776C161.266 11.0346 161.663 11.3221 162.105 11.523C162.547 11.724 163.024 11.8342 163.509 11.8474ZM163.821 0H165.791L164.196 2.05036H162.68L163.821 0Z" fill="white"/>
<path d="M171.272 2.75244H173.211L177.256 8.92743C177.585 9.46041 177.883 10.0118 178.149 10.5789C178.149 10.5789 178.045 9.55769 178.045 8.92743V2.75244H179.976V13.435H178.045L174.001 7.28396C173.673 6.75162 173.377 6.20015 173.115 5.63251C173.115 5.63251 173.219 6.6537 173.219 7.28396V13.435H171.28L171.272 2.75244Z" fill="white"/>
<path d="M86.003 20.8066H92.3854V22.482H87.9336V25.2743H91.5317V26.9497H87.9336V29.8218H92.6247V31.4892H85.995L86.003 20.8066Z" fill="white"/>
<path d="M95.1618 28.7529C95.8923 29.426 96.8345 29.8237 97.8264 29.8778C98.6242 29.8778 99.3741 29.4629 99.3741 28.5853C99.3741 26.6786 94.332 26.9897 94.332 23.7267C94.332 21.9556 95.8718 20.6233 97.9142 20.6233C99.0864 20.5795 100.23 20.9912 101.105 21.7721L100.26 23.3677C99.5905 22.7947 98.7467 22.4657 97.8663 22.4343C96.9648 22.4343 96.2707 22.9609 96.2707 23.7108C96.2707 25.6096 101.289 25.1388 101.289 28.5614C101.289 30.2607 99.9964 31.6888 97.7706 31.6888C97.0904 31.6999 96.4146 31.5767 95.7821 31.3262C95.1496 31.0756 94.5728 30.7027 94.0847 30.2288L95.1618 28.7529Z" fill="white"/>
<path d="M103.531 20.8066H107.647C108.546 20.8496 109.394 21.2369 110.015 21.8883C110.636 22.5396 110.983 23.4051 110.983 24.305C110.983 25.205 110.636 26.0704 110.015 26.7217C109.394 27.3731 108.546 27.7604 107.647 27.8034H105.469V31.4892H103.531V20.8066ZM107.288 26.12C107.532 26.1374 107.776 26.1015 108.004 26.0148C108.232 25.928 108.438 25.7926 108.608 25.6178C108.779 25.4431 108.909 25.2333 108.989 25.0031C109.07 24.7729 109.099 24.5278 109.075 24.285C109.098 24.0468 109.068 23.8065 108.989 23.5807C108.909 23.355 108.782 23.1493 108.615 22.9778C108.448 22.8063 108.246 22.6732 108.022 22.5875C107.799 22.5019 107.559 22.4659 107.32 22.482H105.469V26.12H107.288Z" fill="white"/>
<path d="M118.027 28.7527H114.285L113.383 31.4892H111.381L115.138 20.8066H117.173L120.931 31.4892H118.936L118.027 28.7527ZM116.152 22.6575C116.152 22.6575 115.904 23.7106 115.697 24.317L114.748 27.1731H117.548L116.598 24.317C116.407 23.7106 116.176 22.6575 116.176 22.6575H116.152Z" fill="white"/>
<path d="M122.574 20.8068H124.513L128.566 26.9738C128.889 27.5114 129.185 28.0653 129.451 28.6332C129.451 28.6332 129.34 27.612 129.34 26.9738V20.8068H131.27V31.4894H129.34L125.295 25.3383C124.968 24.8026 124.672 24.2486 124.409 23.6789C124.409 23.6789 124.513 24.708 124.513 25.3383V31.4894H122.574V20.8068ZM125.901 18.0225C126.906 18.0225 127.178 19.0037 127.792 19.0037C128.215 19.0037 128.382 18.549 128.382 18.0703H129.675C129.675 19.4266 129.132 20.1286 127.991 20.1286C126.978 20.1286 126.707 19.1553 126.093 19.1553C125.67 19.1553 125.518 19.5861 125.518 20.0888H124.21C124.21 18.7165 124.784 18.0225 125.901 18.0225Z" fill="white"/>
<path d="M139.065 20.6231C139.788 20.607 140.507 20.7365 141.18 21.0037C141.852 21.271 142.464 21.6706 142.979 22.1788C143.494 22.6871 143.901 23.2936 144.177 23.9624C144.453 24.6312 144.592 25.3486 144.586 26.0721C144.586 27.5363 144.004 28.9405 142.969 29.9759C141.933 31.0112 140.529 31.5929 139.065 31.5929C137.601 31.5929 136.196 31.0112 135.161 29.9759C134.126 28.9405 133.544 27.5363 133.544 26.0721C133.536 25.3483 133.674 24.6304 133.95 23.9611C134.226 23.2918 134.633 22.6848 135.148 22.1763C135.664 21.6678 136.276 21.2683 136.949 21.0015C137.621 20.7346 138.341 20.6059 139.065 20.6231ZM139.065 29.8936C139.549 29.8815 140.026 29.7722 140.468 29.5721C140.909 29.3719 141.306 29.085 141.634 28.7285C141.962 28.372 142.215 27.9531 142.378 27.4967C142.541 27.0404 142.611 26.5559 142.583 26.0721C142.606 25.5954 142.531 25.1191 142.365 24.672C142.198 24.2249 141.942 23.8163 141.613 23.471C141.284 23.1256 140.888 22.8507 140.449 22.6628C140.01 22.475 139.538 22.3781 139.061 22.3781C138.584 22.3781 138.111 22.475 137.673 22.6628C137.234 22.8507 136.838 23.1256 136.509 23.471C136.179 23.8163 135.924 24.2249 135.757 24.672C135.59 25.1191 135.516 25.5954 135.539 26.0721C135.511 26.5566 135.58 27.0417 135.744 27.4986C135.908 27.9554 136.161 28.3747 136.491 28.7313C136.82 29.088 137.217 29.3747 137.659 29.5743C138.102 29.774 138.58 29.8826 139.065 29.8936Z" fill="white"/>
<path d="M146.827 20.8066H148.766V29.8218H153.385V31.4892H146.827V20.8066Z" fill="white"/>
<path d="M160.861 28.7527H157.111L156.21 31.4892H154.207L157.973 20.8066H160.007L163.765 31.4892H161.762L160.861 28.7527ZM158.978 22.6575C158.978 22.6575 158.739 23.7106 158.531 24.317L157.582 27.1731H160.382L159.433 24.317C159.233 23.7106 159.01 22.6575 159.01 22.6575H158.978Z" fill="white"/>
<path d="M86.0031 38.8608H89.6809C92.9758 38.8608 95.1299 40.8154 95.1299 44.1901C95.1299 47.5649 92.9758 49.5434 89.6809 49.5434H86.0429L86.0031 38.8608ZM89.5373 47.876C91.7073 47.876 93.0875 46.5915 93.0875 44.1901C93.0875 41.7888 91.6754 40.5282 89.5373 40.5282H87.9417V47.876H89.5373Z" fill="white"/>
<path d="M97.3877 38.8608H103.77V40.5282H99.3104V43.3445H102.908V45.0199H99.3104V47.892H104.041V49.5594H97.4036L97.3877 38.8608Z" fill="white"/>
<path d="M110.24 38.8608H113.878C117.173 38.8608 119.327 40.8154 119.327 44.1901C119.327 47.5649 117.173 49.5434 113.878 49.5434H110.24V38.8608ZM113.775 47.876C115.937 47.876 117.325 46.5915 117.325 44.1901C117.325 41.7888 115.913 40.5282 113.775 40.5282H112.179V47.876H113.775Z" fill="white"/>
<path d="M121.593 38.8608H125.039C125.771 38.7997 126.507 38.9033 127.193 39.164C127.744 39.4186 128.205 39.8336 128.515 40.3547C128.825 40.8758 128.971 41.4786 128.933 42.0839C128.957 42.6948 128.798 43.299 128.477 43.8192C128.156 44.3394 127.687 44.7519 127.13 45.0039C127.271 45.1637 127.391 45.3406 127.489 45.5304L129.691 49.5194H127.521L125.398 45.5304H123.532V49.5194H121.593V38.8608ZM125.279 43.871C125.505 43.8919 125.733 43.8627 125.947 43.7854C126.161 43.7082 126.355 43.5849 126.515 43.4242C126.676 43.2635 126.799 43.0694 126.877 42.8557C126.954 42.642 126.983 42.4139 126.962 42.1876C126.962 41.1664 126.531 40.5282 125.007 40.5282H123.532V43.871H125.279Z" fill="white"/>
<path d="M131.557 38.8608H133.496V45.7379C133.577 46.3084 133.862 46.8304 134.297 47.2081C134.732 47.5857 135.289 47.7937 135.866 47.7937C136.442 47.7937 136.999 47.5857 137.434 47.2081C137.869 46.8304 138.154 46.3084 138.235 45.7379V38.9087H140.174V45.7379C140.174 48.1313 138.443 49.7269 135.874 49.7269C133.305 49.7269 131.557 48.1313 131.557 45.7379V38.8608Z" fill="white"/>
<path d="M143.006 38.8609H147.123C147.581 38.8422 148.039 38.9199 148.465 39.089C148.892 39.2582 149.278 39.515 149.599 39.8429C149.92 40.1707 150.169 40.5623 150.329 40.9923C150.489 41.4224 150.558 41.8813 150.529 42.3393C150.558 42.7994 150.491 43.2605 150.332 43.6931C150.172 44.1257 149.924 44.5202 149.604 44.8514C149.283 45.1826 148.897 45.4432 148.469 45.6164C148.042 45.7897 147.583 45.8719 147.123 45.8576H144.945V49.5434H143.006V38.8609ZM146.764 44.1743C147.007 44.1917 147.251 44.1558 147.479 44.069C147.707 43.9823 147.913 43.8468 148.084 43.6721C148.254 43.4973 148.384 43.2875 148.464 43.0573C148.545 42.8271 148.575 42.5821 148.551 42.3393C148.574 42.1004 148.546 41.8592 148.467 41.6325C148.388 41.4058 148.26 41.199 148.093 41.0266C147.926 40.8542 147.724 40.7203 147.499 40.6343C147.275 40.5482 147.035 40.512 146.796 40.5283H144.945V44.1423L146.764 44.1743Z" fill="white"/>
<path d="M157.494 46.8069H153.752L152.851 49.5434H150.848L154.606 38.8608H156.64L160.398 49.5434H158.404L157.494 46.8069ZM155.619 40.7117C155.619 40.7117 155.38 41.7648 155.164 42.3632L154.215 45.2273H157.015L156.066 42.3632C155.875 41.7648 155.643 40.7117 155.643 40.7117H155.619Z" fill="white"/>
<path d="M162.049 38.8608H163.988V47.876H168.607V49.5434H162.049V38.8608Z" fill="white"/>
<path d="M41.5814 1.55566H17.7352V1.62748L3.64598 21.756C3.34282 22.1629 3.03965 22.5538 2.76839 23.0165L2.59288 23.2638C0.951406 25.9518 0.0564196 29.0289 0.000142734 32.178C-0.0561341 35.3271 0.728335 38.4342 2.27271 41.1791C3.81709 43.924 6.06551 46.2075 8.78624 47.7941C11.507 49.3808 14.6016 50.2132 17.7511 50.2056H41.5974C44.8453 50.2888 48.077 49.7209 51.1019 48.5355C54.1269 47.35 56.8839 45.571 59.2105 43.3032C61.537 41.0355 63.3861 38.3249 64.6486 35.3313C65.9111 32.3377 66.5615 29.1216 66.5615 25.8727C66.5615 22.6237 65.9111 19.4077 64.6486 16.414C63.3861 13.4204 61.537 10.7098 59.2105 8.4421C56.8839 6.17435 54.1269 4.39531 51.1019 3.20986C48.077 2.02441 44.8453 1.45654 41.5974 1.53972L41.5814 1.55566ZM17.7352 40.5044C15.6193 40.5044 13.59 39.6638 12.0938 38.1677C10.5977 36.6715 9.75714 34.6422 9.75714 32.5263C9.75629 31.063 10.1653 29.6286 10.9379 28.3857L11.0416 28.2102C11.1533 28.0427 11.273 27.8672 11.4086 27.6837L11.5362 27.5241L11.6479 27.3646L17.7192 18.6127L23.2639 26.5907L23.5272 26.9657L23.8224 27.3167C24.1576 27.7101 24.4542 28.1349 24.7079 28.5852L24.8356 28.8086C25.4333 29.9449 25.7428 31.2105 25.7371 32.4944C25.7413 33.5468 25.5373 34.5896 25.1367 35.5628C24.7362 36.536 24.1471 37.4203 23.4033 38.1649C22.6595 38.9094 21.7757 39.4994 20.803 39.9009C19.8302 40.3024 18.7876 40.5075 17.7352 40.5044ZM41.5814 40.5044H33.6034C34.8571 38.0318 35.5103 35.2986 35.5102 32.5263C35.5102 31.936 35.5102 31.3615 35.4224 30.7871H41.6213C42.912 30.7871 44.1499 30.2744 45.0625 29.3617C45.9752 28.4491 46.4879 27.2112 46.4879 25.9205C46.4879 24.6298 45.9752 23.392 45.0625 22.4793C44.1499 21.5667 42.912 21.0539 41.6213 21.0539H31.2499L24.4686 11.3128H41.5814C45.4557 11.3128 49.1712 12.8518 51.9107 15.5913C54.6502 18.3308 56.1892 22.0463 56.1892 25.9205C56.1892 29.7948 54.6502 33.5103 51.9107 36.2498C49.1712 38.9893 45.4557 40.5283 41.5814 40.5283V40.5044Z" fill="white"/>
</g>
<defs>
<clipPath id="clip0_508_3223">
<rect width="180" height="50.2376" fill="white"/>
</clipPath>
</defs>
</svg>
