<svg width="184" height="55" viewBox="0 0 184 55" fill="none" xmlns="http://www.w3.org/2000/svg">
<path d="M120.882 10.3774H115.891L115.9 19.6655C115.9 22.379 114.731 24.5749 112.002 24.5749C109.273 24.5749 108.093 22.379 108.093 19.6655V10.3869H103.115L103.114 19.6655C103.114 25.0287 106.58 29.3751 111.972 29.3751C117.363 29.3751 120.88 25.0287 120.88 19.6655L120.882 10.3774Z" fill="white"/>
<path d="M170.837 4.71802H165.873V28.8955H170.837V4.71802Z" fill="white"/>
<path d="M174.504 5.60947V4.74048H178.373V5.60947H176.958V9.43776H175.919V5.60947H174.504Z" fill="white"/>
<path d="M180.376 4.74098L181.481 7.97075H181.494L182.538 4.74097H184V9.4378H183.028V6.10961H183.015L181.858 9.4378H181.058L179.901 6.14242H179.888V9.4378H178.917V4.74097L180.376 4.74098Z" fill="white"/>
<path d="M99.0569 10.1758C94.7775 9.19264 92.0771 13.4231 91.9651 13.6495C91.9104 13.7605 91.9077 13.8261 91.7185 13.8207C91.5618 13.8176 91.5437 13.6495 91.5437 13.6495L91.0126 10.4139H86.5647V28.8795H91.5505V18.8851C91.5505 18.0682 93.7613 14.1523 98.0457 15.1597C100.212 15.6697 101.13 16.5841 101.13 16.5841V10.9585C100.479 10.6024 99.7815 10.339 99.0569 10.1758Z" fill="white"/>
<path d="M127.647 34.9616V28.3174L127.649 28.3183L127.65 25.8304C127.65 25.8304 127.658 25.6314 127.838 25.6291C127.999 25.6278 128.035 25.7333 128.074 25.8304C128.451 26.7664 130.53 30.3313 135.144 29.2134C136.904 28.7194 138.49 27.7466 139.725 26.4044C140.96 25.0623 141.793 23.4041 142.132 21.6163C142.471 19.8285 142.302 17.9821 141.644 16.2847C140.986 14.5873 139.865 13.1063 138.407 12.0082C136.949 10.9101 135.211 10.2386 133.391 10.0691C131.57 9.89965 129.738 10.239 128.1 11.0489C126.463 11.8588 125.085 13.1072 124.121 14.6537C123.158 16.2001 122.648 17.9833 122.648 19.8027V34.9617L127.647 34.9616ZM132.48 14.8551C133.464 14.8551 134.426 15.1454 135.244 15.6893C136.062 16.2331 136.699 17.0061 137.076 17.9104C137.452 18.8147 137.55 19.8098 137.358 20.7697C137.166 21.7297 136.692 22.6115 135.997 23.3035C135.301 23.9955 134.414 24.4667 133.449 24.6575C132.484 24.8483 131.484 24.7501 130.575 24.3754C129.667 24.0007 128.89 23.3662 128.343 22.5522C127.797 21.7383 127.505 20.7814 127.506 19.8026C127.506 18.4904 128.03 17.232 128.963 16.3042C129.896 15.3764 131.161 14.8552 132.48 14.8551Z" fill="white"/>
<path d="M158.858 28.8876H163.857V19.8027C163.857 17.9832 163.347 16.1999 162.383 14.6534C161.42 13.1068 160.042 11.8583 158.405 11.0483C156.767 10.2383 154.935 9.89892 153.114 10.0684C151.293 10.2379 149.556 10.9094 148.098 12.0075C146.639 13.1057 145.518 14.5868 144.86 16.2843C144.202 17.9818 144.033 19.8283 144.372 21.6162C144.711 23.404 145.545 25.0623 146.779 26.4045C148.014 27.7466 149.601 28.7194 151.361 29.2134C155.975 30.3313 158.053 26.7664 158.431 25.8304C158.471 25.7334 158.506 25.6278 158.667 25.6291C158.848 25.6314 158.855 25.8304 158.855 25.8304M159 19.8027C159 20.7816 158.708 21.7386 158.162 22.5526C157.615 23.3666 156.839 24.0012 155.93 24.3759C155.021 24.7507 154.02 24.8488 153.055 24.6579C152.09 24.4671 151.204 23.9958 150.508 23.3036C149.812 22.6114 149.338 21.7296 149.146 20.7695C148.954 19.8094 149.053 18.8142 149.429 17.9099C149.806 17.0055 150.444 16.2326 151.262 15.6888C152.08 15.1451 153.042 14.8549 154.026 14.8551C155.345 14.8554 156.61 15.3767 157.542 16.3045C158.475 17.2323 158.999 18.4905 159 19.8027Z" fill="white"/>
<path d="M70.9475 28.8489H65.2761V4.70825H71.3612C78.7295 4.70825 84.3182 6.05263 84.3182 16.7786C84.3182 27.4007 78.3984 28.8489 70.9475 28.8489ZM72.3011 8.89285H70.2962V24.6607L72.3553 24.7133C76.5778 24.7133 79.2972 24.3309 79.2972 16.779C79.2967 9.53674 76.8962 8.89285 72.3011 8.89285Z" fill="white"/>
<path d="M71.4078 38.9849L74.993 52.4593H72.1476L71.5216 49.6097H67.9174L67.2914 52.4593H64.446L68.0312 38.9849H71.4078ZM71.0474 47.3833L69.7385 41.3254H69.7005L68.3916 47.3833H71.0474Z" fill="white"/>
<path d="M78.7489 48.6473C78.7465 48.9353 78.7719 49.2228 78.8248 49.506C78.8655 49.7426 78.9631 49.966 79.1093 50.157C79.2576 50.3403 79.4501 50.4831 79.669 50.5722C79.9496 50.6815 80.2498 50.7329 80.551 50.7232C80.9635 50.7249 81.3634 50.5813 81.6797 50.3179C81.855 50.1614 81.9915 49.9666 82.0787 49.749C82.1659 49.5313 82.2014 49.2965 82.1824 49.0629C82.1882 48.7967 82.1465 48.5315 82.0591 48.2797C81.972 48.0524 81.8323 47.8488 81.6512 47.6853C81.428 47.4873 81.1752 47.325 80.9019 47.204C80.5281 47.0349 80.145 46.8869 79.7543 46.761C79.2111 46.5868 78.6843 46.3656 78.1798 46.1C77.7658 45.8832 77.3907 45.5994 77.0701 45.2603C76.7735 44.9406 76.5502 44.5607 76.4157 44.1468C76.2686 43.6734 76.1982 43.1797 76.207 42.6842C76.207 41.3506 76.5801 40.3567 77.3262 39.7025C78.0723 39.0483 79.0967 38.721 80.3992 38.7207C80.965 38.7158 81.5291 38.7823 82.078 38.9189C82.5612 39.0371 83.0138 39.2558 83.4059 39.5605C83.784 39.8629 84.0833 40.2514 84.2785 40.6933C84.4996 41.2153 84.6063 41.7782 84.5915 42.3446V42.722H81.9737C82.0046 42.2059 81.8861 41.6917 81.6323 41.2406C81.5047 41.0626 81.3325 40.921 81.1328 40.83C80.9331 40.7389 80.7129 40.7015 80.4941 40.7216C80.2348 40.7138 79.9766 40.7587 79.7353 40.8537C79.5486 40.9304 79.3828 41.05 79.2516 41.2028C79.131 41.3477 79.0465 41.5189 79.005 41.7025C78.9602 41.8944 78.9379 42.0909 78.9386 42.288C78.9258 42.655 79.0179 43.0182 79.2042 43.3353C79.3812 43.6184 79.7606 43.8793 80.3423 44.1181L82.4479 45.0244C82.897 45.212 83.3233 45.4494 83.7189 45.7321C84.0227 45.9521 84.2886 46.2198 84.5061 46.5247C84.7017 46.8068 84.8402 47.1241 84.914 47.4588C84.9932 47.831 85.0314 48.2107 85.0278 48.5911C85.0278 50.0133 84.6136 51.0481 83.7853 51.6956C82.957 52.3435 81.803 52.6674 80.3234 52.6675C78.7801 52.6675 77.6767 52.334 77.0132 51.6672C76.3493 51.0004 76.0173 50.0441 76.0173 48.7983V48.251H78.7489V48.6473Z" fill="white"/>
<path d="M89.201 48.6473C89.1986 48.9353 89.224 49.2228 89.2769 49.506C89.3175 49.7426 89.4152 49.966 89.5614 50.157C89.7097 50.3403 89.9022 50.4831 90.121 50.5722C90.4017 50.6815 90.7018 50.7329 91.0031 50.7232C91.4156 50.7249 91.8154 50.5813 92.1318 50.3179C92.3071 50.1614 92.4436 49.9667 92.5308 49.749C92.618 49.5313 92.6535 49.2965 92.6345 49.0629C92.6403 48.7967 92.5986 48.5315 92.5112 48.2797C92.4241 48.0524 92.2844 47.8488 92.1033 47.6853C91.8801 47.4873 91.6273 47.325 91.354 47.204C90.9802 47.0349 90.5971 46.8869 90.2064 46.761C89.6632 46.5868 89.1364 46.3656 88.632 46.1C88.2179 45.8832 87.8429 45.5994 87.5222 45.2603C87.2256 44.9406 87.0023 44.5607 86.8678 44.1468C86.7208 43.6734 86.6503 43.1797 86.6591 42.6842C86.6591 41.3506 87.0322 40.3567 87.7783 39.7025C88.5245 39.0483 89.5488 38.721 90.8514 38.7207C91.4171 38.7158 91.9812 38.7823 92.5301 38.9189C93.0133 39.0371 93.4659 39.2558 93.858 39.5605C94.2364 39.8626 94.5357 40.2513 94.7306 40.6933C94.952 41.2152 95.0587 41.7782 95.0436 42.3446V42.722H92.4258C92.4567 42.2059 92.3382 41.6917 92.0844 41.2406C91.9568 41.0626 91.7846 40.921 91.5849 40.83C91.3852 40.7389 91.165 40.7015 90.9462 40.7216C90.6869 40.7138 90.4287 40.7587 90.1874 40.8537C90.0007 40.9304 89.8349 41.05 89.7037 41.2028C89.5832 41.3477 89.4987 41.5189 89.4571 41.7025C89.4123 41.8944 89.39 42.0909 89.3907 42.288C89.3779 42.655 89.47 43.0182 89.6563 43.3353C89.8333 43.6184 90.2127 43.8793 90.7945 44.1181L92.9001 45.0244C93.3492 45.2119 93.7755 45.4493 94.171 45.7321C94.4748 45.9521 94.7407 46.2198 94.9582 46.5247C95.1538 46.8068 95.2924 47.1241 95.3661 47.4588C95.4453 47.831 95.4835 48.2107 95.4799 48.5911C95.4799 50.0133 95.0656 51.0481 94.237 51.6956C93.4086 52.3435 92.2547 52.6674 90.7751 52.6675C89.2318 52.6675 88.1284 52.334 87.4649 51.6672C86.801 51.0004 86.469 50.0441 86.469 48.7983V48.251H89.2006V48.6473L89.201 48.6473Z" fill="white"/>
<path d="M97.3105 42.9008C97.3795 42.1295 97.5917 41.3776 97.9365 40.6834C98.2496 40.0771 98.7343 39.5752 99.3308 39.2397C99.9378 38.8937 100.753 38.7207 101.778 38.7207C102.802 38.7207 103.618 38.8937 104.225 39.2397C104.821 39.5753 105.306 40.0771 105.62 40.6834C105.964 41.3776 106.176 42.1295 106.245 42.9008C106.435 44.7801 106.435 46.6736 106.245 48.5529C106.176 49.3211 105.964 50.0697 105.62 50.7609C105.311 51.3633 104.824 51.8572 104.225 52.1763C103.618 52.503 102.802 52.6665 101.778 52.667C100.753 52.667 99.9378 52.5034 99.3308 52.1763C98.7316 51.8572 98.2451 51.3633 97.9365 50.7609C97.5923 50.0698 97.3801 49.3211 97.3105 48.5529C97.1214 46.6736 97.1214 44.7802 97.3105 42.9008ZM99.9662 48.0344C99.9907 48.5589 100.08 49.0785 100.232 49.5814C100.327 49.9223 100.526 50.2255 100.801 50.45C101.095 50.6287 101.433 50.7232 101.778 50.7232C102.123 50.7232 102.461 50.6287 102.755 50.45C103.03 50.2255 103.228 49.9222 103.324 49.5814C103.475 49.0784 103.565 48.5589 103.59 48.0344C103.634 47.399 103.656 46.6283 103.656 45.7221C103.656 44.8163 103.634 44.0489 103.59 43.4198C103.563 42.8954 103.474 42.3761 103.324 41.8728C103.23 41.5287 103.031 41.2222 102.755 40.9952C102.461 40.8163 102.123 40.7216 101.778 40.7216C101.433 40.7216 101.095 40.8163 100.801 40.9952C100.525 41.2219 100.326 41.5286 100.232 41.8728C100.081 42.3759 99.992 42.8954 99.9662 43.4198C99.9215 44.0489 99.8994 44.8163 99.8998 45.7221C99.8994 46.6284 99.9215 47.3992 99.9662 48.0344Z" fill="white"/>
<path d="M114.041 41.3914C113.807 40.9448 113.38 40.7215 112.761 40.7215C112.456 40.7094 112.156 40.8065 111.917 40.9951C111.661 41.2346 111.48 41.5426 111.395 41.8821C111.249 42.4057 111.16 42.9436 111.13 43.4862C111.079 44.1467 111.054 44.9549 111.054 45.9108C111.045 46.7361 111.08 47.5613 111.158 48.383C111.197 48.8829 111.306 49.3751 111.48 49.8456C111.578 50.134 111.773 50.3804 112.031 50.5443C112.267 50.6676 112.532 50.7292 112.799 50.7231C113.029 50.7251 113.257 50.6836 113.472 50.6009C113.701 50.5009 113.891 50.3285 114.012 50.1102C114.192 49.7874 114.314 49.4361 114.373 49.0718C114.472 48.489 114.517 47.8983 114.506 47.3073H117.238C117.24 48.0029 117.183 48.6974 117.067 49.3832C116.97 49.9913 116.754 50.5747 116.432 51.1001C116.113 51.5988 115.659 51.9979 115.123 52.2513C114.433 52.5533 113.684 52.6953 112.931 52.6665C111.907 52.6665 111.091 52.5029 110.484 52.1758C109.885 51.8568 109.399 51.3629 109.09 50.7604C108.746 50.0693 108.534 49.3206 108.464 48.5524C108.275 46.6731 108.275 44.7797 108.464 42.9003C108.533 42.129 108.745 41.3771 109.09 40.6829C109.403 40.0765 109.888 39.5746 110.484 39.2392C111.092 38.8932 111.907 38.7202 112.931 38.7202C113.905 38.7202 114.673 38.8775 115.236 39.192C115.76 39.4687 116.196 39.8833 116.498 40.3904C116.775 40.8726 116.953 41.4052 117.02 41.9567C117.087 42.4794 117.121 43.0056 117.124 43.5325H114.392C114.392 42.5521 114.275 41.8384 114.041 41.3914Z" fill="white"/>
<path d="M119.533 38.9849H122.264V52.4593H119.533V38.9849Z" fill="white"/>
<path d="M130.914 38.9849L134.499 52.4593H131.654L131.028 49.6097H127.424L126.798 52.4593H123.953L127.538 38.9849H130.914ZM130.554 47.3833L129.245 41.3254H129.207L127.899 47.3833H130.554Z" fill="white"/>
<path d="M142.941 41.2117H139.982V52.4593H137.25V41.2117H134.291V38.9849H142.941V41.2117H142.941Z" fill="white"/>
<path d="M144.856 38.9849H147.588V52.4593H144.856L144.856 38.9849Z" fill="white"/>
<path d="M150.083 42.9008C150.152 42.1295 150.364 41.3777 150.708 40.6834C151.022 40.0771 151.507 39.5753 152.103 39.2397C152.71 38.8937 153.526 38.7207 154.55 38.7207C155.574 38.7207 156.39 38.8937 156.997 39.2397C157.594 39.5751 158.078 40.077 158.391 40.6834C158.736 41.3774 158.949 42.1294 159.017 42.9008C159.207 44.7802 159.207 46.6736 159.017 48.5529C158.948 49.3212 158.736 50.07 158.391 50.7609C158.083 51.3634 157.596 51.8574 156.997 52.1763C156.39 52.503 155.574 52.6665 154.55 52.667C153.526 52.667 152.71 52.5034 152.103 52.1763C151.504 51.8571 151.017 51.3632 150.708 50.7609C150.364 50.0697 150.152 49.3211 150.083 48.5529C149.892 46.6736 149.892 44.7801 150.083 42.9008ZM152.738 48.0344C152.763 48.5589 152.852 49.0785 153.004 49.5814C153.1 49.9221 153.298 50.2252 153.573 50.45C153.867 50.6287 154.205 50.7232 154.55 50.7232C154.894 50.7232 155.232 50.6287 155.527 50.45C155.802 50.2258 156.001 49.9224 156.096 49.5814C156.248 49.0786 156.337 48.559 156.361 48.0344C156.406 47.399 156.429 46.6283 156.428 45.7221C156.428 44.8163 156.406 44.0489 156.361 43.4198C156.336 42.8953 156.247 42.3759 156.096 41.8728C156.002 41.5285 155.803 41.2218 155.527 40.9952C155.232 40.8163 154.894 40.7216 154.55 40.7216C154.205 40.7216 153.867 40.8163 153.573 40.9952C153.297 41.2223 153.098 41.5288 153.004 41.8728C152.853 42.376 152.764 42.8954 152.738 43.4198C152.694 44.0489 152.672 44.8163 152.672 45.7221C152.672 46.6284 152.694 47.3992 152.738 48.0344Z" fill="white"/>
<path d="M167.829 48.2132H167.867V38.9849H170.37V52.4593H167.26L163.921 43.0234H163.883V52.4593H161.379V38.9849H164.528L167.829 48.2132Z" fill="white"/>
<path d="M25.0704 26.4199L20.9943 21.9907C14.8349 28.0525 18.1554 33.7458 19.0546 33.7761C19.1482 33.7792 19.3034 33.7904 19.4097 33.4954C19.9251 32.0652 24.0706 27.9296 25.0428 26.9372C25.0812 26.9067 25.1127 26.8684 25.1352 26.8249C25.1576 26.7813 25.1706 26.7336 25.1732 26.6847C25.1758 26.6359 25.168 26.587 25.1503 26.5414C25.1325 26.4957 25.1053 26.4543 25.0704 26.4199Z" fill="white"/>
<path d="M27.4899 28.7239C27.4899 28.7239 24.6125 31.8369 23.7023 32.9439C22.908 33.8698 22.4632 35.0424 22.4446 36.2595C22.4441 36.9191 22.5743 37.5722 22.8277 38.1817C23.081 38.7911 23.4526 39.345 23.9212 39.8115C24.3898 40.278 24.9462 40.6481 25.5587 40.9006C26.1711 41.1531 26.8275 41.283 27.4905 41.283C28.1534 41.283 28.8099 41.1531 29.4223 40.9006C30.0347 40.6481 30.5911 40.278 31.0597 39.8115C31.5283 39.345 31.9 38.7911 32.1533 38.1817C32.4067 37.5722 32.5369 36.9191 32.5364 36.2595C32.5473 35.0323 32.0957 33.8456 31.2706 32.9333C30.3237 31.8826 27.4899 28.7239 27.4899 28.7239Z" fill="white"/>
<path d="M27.6422 0C22.1751 0 16.8307 1.61285 12.285 4.63459C7.73928 7.65632 4.19632 11.9512 2.10415 16.9762C0.0119769 22.0012 -0.53543 27.5305 0.531149 32.865C1.59773 38.1995 4.23039 43.0995 8.09622 46.9454C11.962 50.7914 16.8874 53.4105 22.2495 54.4716C27.6115 55.5327 33.1694 54.9881 38.2204 52.9067C43.2713 50.8253 47.5884 47.3005 50.6258 42.7782C53.6632 38.2558 55.2843 32.939 55.2843 27.5C55.2843 20.2066 52.372 13.2118 47.1881 8.05459C42.0042 2.89735 34.9733 2.52918e-05 27.6422 0ZM27.4899 44.9735C23.5998 44.9689 19.8704 43.4292 17.12 40.6924C14.3695 37.9556 12.8226 34.2451 12.8188 30.375C12.8188 23.5373 17.4061 18.978 21.4523 14.9553C24.1499 12.2727 26.724 9.71552 27.4899 6.83113C28.2564 9.71552 30.8299 12.2727 33.5281 14.9553C37.5754 18.978 42.1622 23.5375 42.1622 30.375C42.1582 34.2452 40.6112 37.9558 37.8605 40.6927C35.1098 43.4295 31.3802 44.9691 27.4899 44.9735Z" fill="white"/>
<path d="M27.4899 15.2288C27.4899 15.2288 25.472 17.2351 24.7802 17.9245C24.2292 18.4736 23.041 19.5216 24.424 21.0084C25.996 22.6984 34.4015 31.4376 35.3645 32.8558C35.8029 33.5017 35.8666 33.8041 36.4602 33.7826C36.7929 33.7703 37.0399 33.3754 37.1485 33.1387C37.6582 32.0306 38.5217 28.6721 36.0149 24.7905C33.508 20.9092 27.4899 15.2288 27.4899 15.2288Z" fill="white"/>
</svg>
