<svg width="30" height="29" viewBox="0 0 30 29" fill="none" xmlns="http://www.w3.org/2000/svg">
<path fill-rule="evenodd" clip-rule="evenodd" d="M21.3333 0.134277H8.66667C4.29442 0.134277 0.75 3.6787 0.75 8.05094V20.7176C0.75 25.0898 4.29442 28.6343 8.66667 28.6343H21.3333C25.7056 28.6343 29.25 25.0898 29.25 20.7176V8.05094C29.25 3.6787 25.7056 0.134277 21.3333 0.134277ZM26.4792 20.7176C26.4705 23.5559 24.1716 25.8547 21.3333 25.8634H8.66667C5.8283 25.8547 3.52953 23.5559 3.52083 20.7176V8.05094C3.52953 5.21258 5.8283 2.9138 8.66667 2.90511H21.3333C24.1716 2.9138 26.4705 5.21258 26.4792 8.05094V20.7176ZM22.5208 8.44678C23.3953 8.44678 24.1042 7.73789 24.1042 6.86344C24.1042 5.989 23.3953 5.28011 22.5208 5.28011C21.6464 5.28011 20.9375 5.989 20.9375 6.86344C20.9375 7.73789 21.6464 8.44678 22.5208 8.44678ZM15 7.25928C11.065 7.25928 7.875 10.4493 7.875 14.3843C7.875 18.3193 11.065 21.5093 15 21.5093C18.9351 21.5093 22.125 18.3193 22.125 14.3843C22.1293 12.4933 21.3799 10.6786 20.0428 9.34149C18.7056 8.00438 16.891 7.25507 15 7.25928ZM10.6458 14.3843C10.6458 16.789 12.5952 18.7384 15 18.7384C17.4048 18.7384 19.3542 16.789 19.3542 14.3843C19.3542 11.9795 17.4048 10.0301 15 10.0301C12.5952 10.0301 10.6458 11.9795 10.6458 14.3843Z" fill="currentColor"/>
</svg>
