<svg width="30" height="29" viewBox="0 0 30 29" fill="none" xmlns="http://www.w3.org/2000/svg">
<path fill-rule="evenodd" clip-rule="evenodd" d="M3.125 0.134277C1.81332 0.134277 0.75 1.1976 0.75 2.50928V26.2593C0.75 27.5709 1.81332 28.6343 3.125 28.6343H26.875C28.1866 28.6343 29.25 27.5709 29.25 26.2593V2.50928C29.25 1.1976 28.1866 0.134277 26.875 0.134277H3.125ZM9.4912 6.47192C9.50012 7.98598 8.3668 8.91891 7.02195 8.91223C5.75503 8.90555 4.65065 7.89692 4.65733 6.47415C4.66402 5.13598 5.72163 4.06055 7.09543 4.09172C8.48925 4.1229 9.50012 5.14489 9.4912 6.47192ZM15.4429 10.8404H11.4529H11.4506V24.3935H15.6677V24.0773C15.6677 23.4758 15.6672 22.8741 15.6667 22.2723C15.6655 20.6671 15.6641 19.0602 15.6723 17.4555C15.6745 17.0658 15.6922 16.6606 15.7925 16.2887C16.1687 14.8993 17.4179 14.0021 18.8117 14.2226C19.7068 14.3627 20.2989 14.8816 20.5483 15.7255C20.7021 16.2531 20.7711 16.8209 20.7777 17.3709C20.7958 19.0296 20.7933 20.6883 20.7907 22.3472C20.7898 22.9327 20.7888 23.5185 20.7888 24.104V24.3913H25.0193V24.0662C25.0193 23.3505 25.019 22.635 25.0185 21.9195C25.0177 20.1311 25.0168 18.3428 25.0215 16.5538C25.0238 15.7455 24.937 14.9484 24.7388 14.1669C24.4427 13.0046 23.8304 12.0427 22.8351 11.3481C22.1293 10.8537 21.3544 10.5354 20.4883 10.4997C20.3897 10.4956 20.2902 10.4903 20.1903 10.4849C19.7475 10.4609 19.2973 10.4366 18.8739 10.522C17.6627 10.7647 16.5985 11.3191 15.7947 12.2965C15.7013 12.4086 15.6099 12.5224 15.4736 12.6923L15.4429 12.7308V10.8404ZM4.99593 24.3979H9.193V10.8492H4.99593V24.3979Z" fill="currentColor"/>
</svg>
