<svg width="32" height="24" viewBox="0 0 32 24" fill="none" xmlns="http://www.w3.org/2000/svg">
<path d="M31.1889 4.40484C31.0086 3.73573 30.6562 3.12552 30.1667 2.63494C29.6772 2.14437 29.0678 1.79054 28.3991 1.60868C25.9196 0.927843 16 0.91676 16 0.91676C16 0.91676 6.08203 0.905676 3.60095 1.55643C2.93266 1.74666 2.3245 2.10549 1.83485 2.59847C1.34519 3.09146 0.990486 3.70204 0.804784 4.37159C0.150867 6.85109 0.144534 11.9938 0.144534 11.9938C0.144534 11.9938 0.1382 17.1618 0.787367 19.6159C1.15153 20.9728 2.22028 22.0448 3.57878 22.4105C6.08362 23.0913 15.9763 23.1024 15.9763 23.1024C15.9763 23.1024 25.8959 23.1135 28.3754 22.4643C29.0443 22.2828 29.6543 21.9298 30.145 21.4402C30.6357 20.9506 30.9901 20.3415 31.1731 19.6729C31.8286 17.195 31.8334 12.0539 31.8334 12.0539C31.8334 12.0539 31.865 6.88434 31.1889 4.40484ZM12.827 16.758L12.835 7.25801L21.0794 12.0159L12.827 16.758Z" fill="currentColor"/>
</svg>
